<svg width="151" height="127" viewBox="0 0 151 127" fill="none" xmlns="http://www.w3.org/2000/svg">
<g clip-path="url(#clip0)">
<path d="M131.316 36.0963C131.16 35.961 131.005 35.8181 130.848 35.6967C130.808 35.6591 91.6601 5.58551 90.4833 4.67586C90.4148 4.62508 90.3486 4.5743 90.3486 4.5743C84.076 -0.227855 74.7587 -0.329418 68.1549 4.29831C64.024 7.18843 61.5423 11.56 61.3569 16.2893C61.3525 16.477 61.3414 16.6669 61.3414 16.859C61.3414 19.3119 61.9927 21.681 63.1695 23.8094C51.0482 23.8204 38.8563 23.8337 38.8563 23.8337C29.7642 23.8403 21.5421 29.9738 19.6654 38.101C19.3982 39.2668 19.2635 40.4414 19.2635 41.6072C19.2635 45.0073 20.394 48.3037 22.5334 51.0106C24.9422 54.0376 28.4174 56.0754 32.3828 56.8703C20.9305 65.6643 9.48701 74.4451 9.47597 74.4561C9.39428 74.5157 9.32804 74.5709 9.27063 74.6084C4.67823 78.1366 1.65343 83.2457 0.968984 88.6241C0.867421 89.4123 0.818848 90.1939 0.818848 90.9689C0.818848 94.8415 2.05526 98.5243 4.40004 101.534C7.25483 105.185 11.4675 107.504 16.2652 108.049C21.7629 108.685 27.5475 106.923 32.1245 103.223C32.1532 103.201 37.8208 98.553 43.7976 93.6647C45.99 98.957 49.0656 103.863 53.0398 108.25C58.1532 113.9 64.3684 118.364 71.5021 121.522C79.0001 124.844 87.0346 126.522 95.3848 126.503C103.742 126.487 111.772 124.789 119.259 121.447C126.408 118.247 132.61 113.768 137.703 108.126C138.452 107.292 139.09 106.612 139.83 105.53C151.378 88.6241 158.534 59.7418 131.316 36.0963Z" fill="#FEFEFE"/>
<path d="M78.5394 69.2775C78.7734 65.1023 80.8179 61.424 83.9023 58.8165C86.9271 56.2553 90.9985 54.6899 95.4407 54.6899C99.8786 54.6899 103.95 56.2553 106.977 58.8165C110.059 61.424 112.104 65.1023 112.34 69.273C112.574 73.563 110.85 77.5482 107.825 80.5024C104.74 83.5073 100.353 85.3928 95.4407 85.3928C90.5282 85.3928 86.1323 83.5073 83.0501 80.5024C80.0231 77.5482 78.3031 73.563 78.5394 69.2775Z" fill="#0E548B"/>
<path d="M51.9673 77.6085C51.996 79.2423 52.517 82.4173 53.2986 84.8967C54.9413 90.1449 57.7276 95 61.6047 99.2789C65.5833 103.677 70.4826 107.21 76.1414 109.718C82.0895 112.352 88.5343 113.694 95.2286 113.683C101.912 113.674 108.357 112.305 114.305 109.652C119.964 107.119 124.858 103.571 128.83 99.1707C132.705 94.8742 135.487 90.0102 137.134 84.762C137.962 82.1104 138.486 79.419 138.695 76.7187C138.901 74.0582 138.814 71.3933 138.437 68.7306C137.699 63.5421 135.904 58.6737 133.14 54.2358C130.612 50.1579 127.353 46.5877 123.478 43.5828L123.487 43.5761L84.3835 13.5511C84.3481 13.5246 84.3194 13.4959 84.2819 13.4716C81.7163 11.5022 77.4021 11.5088 74.5804 13.4827C71.7279 15.4786 71.4011 18.7794 73.9402 20.8614L73.9291 20.8725L90.2388 34.1352L40.5282 34.1882C40.5039 34.1882 40.4796 34.1882 40.462 34.1882C36.3531 34.1926 32.4032 36.8885 31.6216 40.2952C30.8179 43.766 33.6087 46.6451 37.881 46.6606L37.8743 46.676L63.0707 46.6274L18.1093 81.1389C18.0519 81.1809 17.9901 81.225 17.9371 81.267C13.6958 84.5148 12.3247 89.9152 14.9962 93.333C17.7075 96.8083 23.4723 96.8149 27.7578 93.3529L52.2963 73.27C52.2963 73.27 51.9386 75.9813 51.9673 77.6085ZM115.022 86.6873C109.966 91.8383 102.888 94.7593 95.2286 94.7748C87.5584 94.788 80.4799 91.8935 75.4239 86.7513C72.9532 84.2454 71.1384 81.3619 70.019 78.2907C68.9216 75.2726 68.4955 72.0689 68.7781 68.8366C69.0453 65.6771 69.9858 62.6633 71.4872 59.9366C72.9621 57.2562 74.9933 54.8342 77.5015 52.7852C82.4162 48.7801 88.6734 46.612 95.2176 46.6032C101.768 46.5943 108.021 48.7426 112.94 52.7345C115.444 54.7745 117.473 57.1878 118.948 59.8637C120.456 62.5882 121.39 65.591 121.668 68.7593C121.946 71.9872 121.52 75.1864 120.423 78.2068C119.301 81.2868 117.493 84.1703 115.022 86.6873Z" fill="#F4792B"/>
</g>
<defs>
<clipPath id="clip0">
<rect width="149.937" height="126.33" fill="white" transform="translate(0.661865 0.517212)"/>
</clipPath>
</defs>
</svg>
