<svg width="113" height="127" viewBox="0 0 113 127" fill="none" xmlns="http://www.w3.org/2000/svg">
<g clip-path="url(#clip0)">
<path d="M110.9 95.3785C111.781 93.8541 112.328 92.1365 112.328 90.5941V37.0543C112.328 35.5119 111.782 33.7947 110.901 32.2703L56.1984 63.8244L110.9 95.3785Z" fill="#00599C"/>
<path d="M61.0599 125.776L107.468 99.0063C108.805 98.2351 110.02 96.9035 110.901 95.3787L56.199 63.8246L1.49707 95.3791C2.37791 96.9035 3.59333 98.2355 4.92981 99.0063L51.338 125.776C54.0114 127.318 58.3866 127.318 61.0599 125.776Z" fill="#004482"/>
<path d="M110.901 32.27C110.02 30.7452 108.805 29.4135 107.468 28.6423L61.0598 1.87261C58.3865 0.330223 54.0113 0.330223 51.338 1.87261L4.92974 28.6423C2.25604 30.1844 0.068799 33.97 0.068799 37.0544V90.5942C0.068799 92.1366 0.615793 93.8542 1.497 95.3786L56.1989 63.8245L110.901 32.27Z" fill="#659AD2"/>
<path d="M56.1987 101.211C35.5652 101.211 18.7787 84.4396 18.7787 63.8244C18.7787 43.2092 35.5652 26.4375 56.1987 26.4375C69.5129 26.4375 81.9302 33.596 88.6041 45.1192L72.4097 54.4821C69.0694 48.7142 62.8573 45.1309 56.1987 45.1309C45.8818 45.1309 37.4887 53.5166 37.4887 63.8244C37.4887 74.1318 45.8818 82.5178 56.1987 82.5178C62.858 82.5178 69.0701 78.9345 72.4108 73.1656L88.6052 82.5281C81.9313 94.0524 69.5137 101.211 56.1987 101.211Z" fill="white"/>
<path d="M93.6195 61.7474H89.4615V57.5934H85.3042V61.7474H81.1462V65.9013H85.3042V70.0557H89.4615V65.9013H93.6195V61.7474Z" fill="white"/>
<path d="M109.211 61.7474H105.053V57.5934H100.896V61.7474H96.7377V65.9013H100.896V70.0557H105.053V65.9013H109.211V61.7474Z" fill="white"/>
</g>
<defs>
<clipPath id="clip0">
<rect width="112.398" height="126.33" fill="white" transform="translate(0 0.659546)"/>
</clipPath>
</defs>
</svg>
