<svg width="501" height="500" viewBox="0 0 501 500" fill="none" xmlns="http://www.w3.org/2000/svg">
<g id="linkedin" clip-path="url(#clip0)">
<path id="bg" fill-rule="evenodd" clip-rule="evenodd" d="M500.907 62.5C500.907 28.0049 472.902 0 438.407 0H63.4067C28.9116 0 0.906738 28.0049 0.906738 62.5V437.5C0.906738 471.995 28.9116 500 63.4067 500H438.407C472.902 500 500.907 471.995 500.907 437.5V62.5Z" fill="#474747"/>
<g id="in">
<path d="M144.227 174.804H60.4772V426.72H144.227V174.804Z" fill="#232323"/>
<path d="M102.969 53.2227C74.3159 53.2227 55.5942 72.0605 55.5942 96.751C55.5942 120.923 73.7466 140.28 101.861 140.28H102.402C131.604 140.28 149.781 120.923 149.781 96.751C149.239 72.0605 131.606 53.2227 102.969 53.2227Z" fill="#232323"/>
<path d="M349.797 168.945C305.374 168.945 285.475 193.376 274.333 210.536V174.869H190.604C191.714 198.499 190.604 426.784 190.604 426.784H274.332V286.096C274.332 278.566 274.873 271.038 277.092 265.656C283.135 250.617 296.921 235.039 320.054 235.039C350.339 235.039 362.472 258.148 362.472 291.999V426.784H446.204V282.321C446.204 204.941 404.89 168.945 349.797 168.945Z" fill="#232323"/>
</g>
</g>
<defs>
<clipPath id="clip0">
<rect width="500" height="500" fill="white" transform="translate(0.906738)"/>
</clipPath>
</defs>
</svg>
