<svg width="438" height="448" viewBox="0 0 438 448" fill="none" xmlns="http://www.w3.org/2000/svg">
<g id="github">
<circle id="circle" cx="219" cy="229" r="219" fill="#232323"/>
<path id="cat" fill-rule="evenodd" clip-rule="evenodd" d="M219.157 0.25C98.356 0.25 0.406738 100.641 0.406738 224.566C0.406738 323.688 63.102 407.672 150.016 437.359C160.954 439.41 164.958 432.477 164.958 426.52C164.958 421.148 164.762 407.086 164.665 388.336C103.825 401.91 90.9341 358.258 90.9341 358.258C80.9731 332.379 66.6177 325.445 66.6177 325.445C46.7935 311.48 68.0825 311.773 68.0825 311.773C90.0552 313.336 101.579 334.918 101.579 334.918C121.11 369.195 152.75 359.332 165.25 353.57C167.204 339.117 172.868 329.156 179.118 323.59C130.583 317.926 79.5083 298.688 79.5083 212.75C79.5083 188.238 88.0044 168.219 101.969 152.594C99.7231 146.93 92.2036 124.078 104.118 93.2187C104.118 93.2187 122.477 87.1641 164.274 116.168C181.754 111.187 200.407 108.746 219.059 108.648C237.614 108.746 256.364 111.187 273.844 116.168C315.641 87.1641 333.903 93.2187 333.903 93.2187C345.817 124.078 338.297 146.93 336.051 152.594C350.016 168.316 358.512 188.336 358.512 212.75C358.512 298.883 307.34 317.828 258.61 323.395C266.422 330.328 273.454 344 273.454 364.898C273.454 394.879 273.161 419.098 273.161 426.422C273.161 432.379 277.067 439.41 288.2 437.164C375.309 407.574 437.907 323.59 437.907 224.566C437.907 100.641 339.958 0.25 219.157 0.25Z" fill="#474747"/>
</g>
</svg>
