<svg width="501" height="500" viewBox="0 0 501 500" fill="none" xmlns="http://www.w3.org/2000/svg">
<g id="insta" clip-path="url(#clip0)">
<path id="outerCircle" d="M250.907 0C183.01 0 174.497 0.288086 147.832 1.50488C121.222 2.71875 103.048 6.94434 87.146 13.125C70.7065 19.5137 56.7642 28.0625 42.8667 41.9609C28.9683 55.8584 20.4194 69.8008 14.0308 86.2402C7.8501 102.142 3.62451 120.315 2.41064 146.925C1.19385 173.59 0.906738 182.104 0.906738 250C0.906738 317.895 1.19385 326.408 2.41064 353.073C3.62451 379.683 7.8501 397.856 14.0308 413.758C20.4194 430.197 28.9683 444.14 42.8667 458.039C56.7642 471.937 70.7065 480.485 87.146 486.874C103.048 493.054 121.222 497.28 147.832 498.494C174.497 499.71 183.01 499.998 250.907 499.998C318.801 499.998 327.315 499.71 353.98 498.494C380.589 497.28 398.763 493.054 414.665 486.874C431.104 480.485 445.046 471.937 458.946 458.039C472.843 444.14 481.392 430.197 487.781 413.758C493.96 397.856 498.187 379.683 499.401 353.073C500.617 326.408 500.905 317.895 500.905 250C500.905 182.104 500.617 173.59 499.401 146.925C498.187 120.315 493.96 102.142 487.781 86.2402C481.392 69.8008 472.843 55.8584 458.946 41.9609C445.046 28.0625 431.104 19.5137 414.665 13.125C398.763 6.94434 380.589 2.71875 353.98 1.50488C327.315 0.288086 318.801 0 250.907 0V0ZM250.907 45.0459C317.659 45.0459 325.566 45.2998 351.927 46.5029C376.301 47.6152 389.539 51.6875 398.348 55.1104C410.017 59.6455 418.345 65.0635 427.093 73.8115C435.842 82.5596 441.259 90.8887 445.794 102.557C449.218 111.366 453.291 124.604 454.403 148.978C455.605 175.34 455.86 183.247 455.86 250C455.86 316.752 455.605 324.659 454.403 351.021C453.291 375.395 449.218 388.632 445.794 397.441C441.259 409.11 435.842 417.438 427.093 426.187C418.345 434.936 410.017 440.353 398.348 444.888C389.539 448.312 376.301 452.384 351.927 453.495C325.57 454.698 317.664 454.953 250.907 454.953C184.148 454.953 176.244 454.698 149.884 453.495C125.51 452.384 112.273 448.312 103.463 444.888C91.7944 440.353 83.4663 434.936 74.7173 426.187C65.9692 417.438 60.5513 409.11 56.0171 397.441C52.5933 388.632 48.521 375.395 47.4087 351.021C46.2056 324.659 45.9517 316.752 45.9517 250C45.9517 183.247 46.2056 175.34 47.4087 148.978C48.521 124.604 52.5933 111.366 56.0171 102.557C60.5513 90.8887 65.9692 82.5596 74.7173 73.8115C83.4663 65.0635 91.7944 59.6455 103.463 55.1104C112.273 51.6875 125.51 47.6152 149.884 46.5029C176.247 45.2998 184.154 45.0459 250.907 45.0459V45.0459Z" fill="#474747"/>
<path id="innerCircle" d="M250.868 333.293C204.843 333.293 167.534 295.983 167.534 249.961C167.534 203.937 204.843 166.627 250.868 166.627C296.89 166.627 334.2 203.937 334.2 249.961C334.2 295.983 296.89 333.293 250.868 333.293ZM250.868 121.582C179.965 121.582 122.489 179.059 122.489 249.961C122.489 320.861 179.965 378.338 250.868 378.338C321.768 378.338 379.245 320.861 379.245 249.961C379.245 179.059 321.768 121.582 250.868 121.582V121.582Z" fill="#474747"/>
<path id="dot" d="M414.3 116.425C414.3 132.994 400.869 146.425 384.3 146.425C367.732 146.425 354.3 132.994 354.3 116.425C354.3 99.8564 367.732 86.4258 384.3 86.4258C400.869 86.4258 414.3 99.8564 414.3 116.425V116.425Z" fill="#474747"/>
</g>
<defs>
<clipPath id="clip0">
<rect width="500" height="500" fill="white" transform="translate(0.906738)"/>
</clipPath>
</defs>
</svg>
