<svg width="501" height="500" viewBox="0 0 501 500" fill="none" xmlns="http://www.w3.org/2000/svg">
<g id="Behance">
<rect id="be" width="500" height="500" rx="250" fill="#232323"/>
<path id="square" fill-rule="evenodd" clip-rule="evenodd" d="M439.319 0C473.035 0 500.407 27.373 500.407 61.0879V438.912C500.407 472.627 473.034 500 439.319 500H61.4946C27.7798 500 0.406738 472.627 0.406738 438.912V61.0879C0.406738 27.373 27.7788 0 61.4946 0L439.319 0ZM445.417 322.906C446.314 309.406 445.214 296.518 442.089 284.175C438.936 271.813 433.878 260.792 426.796 251.158C419.705 241.505 410.671 233.794 399.669 228.099C388.611 222.329 375.731 219.5 361.012 219.5C347.679 219.5 335.641 221.867 324.722 226.573C313.812 231.307 304.446 237.779 296.541 245.98C288.654 254.135 282.644 263.861 278.317 275.133C274.064 286.366 271.891 298.516 271.891 311.524C271.891 324.977 273.981 337.395 278.132 348.609C282.33 359.88 288.219 369.478 295.801 377.595C303.586 385.686 312.832 391.88 323.899 396.309C334.976 400.673 347.31 402.892 361.012 402.892C380.678 402.892 397.542 398.389 411.383 389.355C425.391 380.351 435.645 365.399 442.413 344.458H400.326C398.698 349.839 394.482 355.026 387.557 359.88C380.567 364.743 372.246 367.175 362.612 367.175C349.205 367.175 338.859 363.662 331.694 356.672C324.519 349.682 319.877 336.664 319.877 322.906H445.417ZM171.537 398.389C182.318 398.389 192.831 397.03 202.954 394.349C213.199 391.658 222.324 387.516 230.285 381.885C238.181 376.301 244.588 369.062 249.294 360.13C253.963 351.3 256.293 340.815 256.293 328.629C256.293 313.596 252.715 300.78 245.42 290.064C238.163 279.423 227.197 271.942 212.431 267.689C223.277 262.549 231.404 255.938 236.932 247.876C242.434 239.795 245.17 229.689 245.17 217.596C245.17 206.417 243.331 196.959 239.678 189.405C235.924 181.74 230.682 175.656 223.989 171.079C217.183 166.503 209.149 163.165 199.718 161.168C190.241 159.106 179.867 158.117 168.375 158.117H55.0942V398.389H171.537ZM165.508 291.304C176.89 291.304 186.145 293.92 193.098 299.19C200.023 304.525 203.518 313.327 203.518 325.707C203.518 332.022 202.492 337.256 200.356 341.287C198.229 345.336 195.29 348.535 191.757 350.865C188.207 353.288 184.018 354.934 179.285 355.96C174.625 357.005 169.668 357.467 164.463 357.467H107.99V291.304H165.508ZM386.605 265.258C380.918 258.98 371.312 255.577 359.579 255.577C351.942 255.577 345.626 256.862 340.56 259.479C335.604 262.068 331.555 265.276 328.458 269.067C325.37 272.913 323.28 276.981 322.05 281.327C320.83 285.562 320.09 289.398 319.877 292.792H397.617C396.479 280.606 392.309 271.592 386.605 265.258ZM157.492 199.048C162.18 199.049 166.739 199.381 171.102 200.231C175.531 200.999 179.359 202.404 182.743 204.448C186.145 206.417 188.854 209.219 190.897 212.807C192.867 216.394 193.837 221.017 193.837 226.601C193.837 236.679 190.897 244.011 184.814 248.458C178.666 252.97 170.899 255.189 161.533 255.189H107.99V199.048H157.492ZM407.491 197.948V174.241H310.095V197.948H407.491Z" fill="#474747"/>
</g>
</svg>
