<svg width="501" height="408" viewBox="0 0 501 408" fill="none" xmlns="http://www.w3.org/2000/svg">
<path id="twitter" d="M500.782 48.9531C482.391 57.125 462.641 62.6406 441.875 65.0938C463.047 52.4063 479.313 32.3125 486.985 8.375C467.157 20.1094 445.219 28.6719 421.86 33.25C403.141 13.3281 376.485 0.875 346.969 0.875C290.329 0.875 244.438 46.7812 244.438 103.422C244.438 111.453 245.329 119.297 247.079 126.797C161.844 122.516 86.2817 81.6875 35.688 19.6406C26.8755 34.7969 21.813 52.4062 21.813 71.2031C21.813 106.797 39.9224 138.172 67.4224 156.578C50.6255 156.031 34.813 151.438 20.9849 143.75C20.9692 144.172 20.9692 144.625 20.9692 145.031C20.9692 194.734 56.313 236.188 103.235 245.609C94.6411 247.938 85.5786 249.203 76.2192 249.203C69.5942 249.203 63.188 248.562 56.938 247.375C69.9692 288.094 107.86 317.75 152.719 318.594C117.641 346.094 73.4224 362.516 25.3755 362.516C17.0942 362.516 8.92236 362.031 0.906738 361.078C46.2817 390.141 100.188 407.125 158.11 407.125C346.735 407.125 449.907 250.859 449.907 115.328C449.907 110.891 449.782 106.453 449.594 102.047C469.641 87.5938 487.016 69.5469 500.782 48.9531Z" fill="#474747"/>
</svg>
