<svg width="86" height="127" viewBox="0 0 86 127" fill="none" xmlns="http://www.w3.org/2000/svg">
<path d="M21.929 126.847C33.542 126.847 42.9671 117.414 42.9671 105.792V84.7369H21.929C10.3159 84.7369 0.890869 94.1696 0.890869 105.792C0.890869 117.414 10.3159 126.847 21.929 126.847Z" fill="#0ACF83"/>
<path d="M0.890869 63.682C0.890869 52.0597 10.3159 42.6271 21.929 42.6271H42.9671V84.737H21.929C10.3159 84.737 0.890869 75.3044 0.890869 63.682Z" fill="#A259FF"/>
<path d="M0.890869 21.5722C0.890869 9.94983 10.3159 0.517212 21.929 0.517212H42.9671V42.6271H21.929C10.3159 42.6271 0.890869 33.1945 0.890869 21.5722Z" fill="#F24E1E"/>
<path d="M42.9671 0.517212H64.0052C75.6183 0.517212 85.0433 9.94983 85.0433 21.5722C85.0433 33.1945 75.6183 42.6271 64.0052 42.6271H42.9671V0.517212Z" fill="#FF7262"/>
<path d="M85.0433 63.682C85.0433 75.3044 75.6183 84.737 64.0052 84.737C52.3921 84.737 42.9671 75.3044 42.9671 63.682C42.9671 52.0597 52.3922 42.6271 64.0052 42.6271C75.6182 42.6271 85.0433 52.0597 85.0433 63.682Z" fill="#1ABCFE"/>
</svg>
