<svg width="1609" height="597" viewBox="0 0 1609 597" fill="none" xmlns="http://www.w3.org/2000/svg">
<path d="M65.6794 576.142C90.6712 576.142 110.931 555.882 110.931 530.89C110.931 505.899 90.6712 485.639 65.6794 485.639C40.6876 485.639 20.4277 505.899 20.4277 530.89C20.4277 555.882 40.6876 576.142 65.6794 576.142Z" fill="#2F2E41"/>
<path d="M58.8057 566.399H45.0583V591.03H58.8057V566.399Z" fill="#2F2E41"/>
<path d="M86.3003 566.399H72.553V591.03H86.3003V566.399Z" fill="#2F2E41"/>
<path d="M56.5145 595.61C62.8415 595.61 67.9706 593.686 67.9706 591.314C67.9706 588.941 62.8415 587.018 56.5145 587.018C50.1874 587.018 45.0583 588.941 45.0583 591.314C45.0583 593.686 50.1874 595.61 56.5145 595.61Z" fill="#2F2E41"/>
<path d="M84.0091 595.045C90.3361 595.045 95.4652 593.122 95.4652 590.749C95.4652 588.377 90.3361 586.453 84.0091 586.453C77.6821 586.453 72.553 588.377 72.553 590.749C72.553 593.122 77.6821 595.045 84.0091 595.045Z" fill="#2F2E41"/>
<path d="M66.825 534.902C75.3665 534.902 82.2908 527.978 82.2908 519.436C82.2908 510.895 75.3665 503.971 66.825 503.971C58.2835 503.971 51.3593 510.895 51.3593 519.436C51.3593 527.978 58.2835 534.902 66.825 534.902Z" fill="white"/>
<path d="M66.8249 517.717C69.6721 517.717 71.9802 515.409 71.9802 512.562C71.9802 509.714 69.6721 507.406 66.8249 507.406C63.9778 507.406 61.6697 509.714 61.6697 512.562C61.6697 515.409 63.9778 517.717 66.8249 517.717Z" fill="#3F3D56"/>
<path d="M21.7836 488.809C18.1298 472.445 29.8097 455.91 47.8715 451.877C65.9333 447.844 83.5373 457.84 87.1912 474.204C90.845 490.567 78.8748 496.603 60.813 500.636C42.7512 504.669 25.4375 505.172 21.7836 488.809Z" fill="#60A8EB"/>
<path d="M106.361 483.811C111.627 472.479 113.012 461.953 109.454 460.299C105.897 458.646 98.7441 466.493 93.4783 477.825C88.2125 489.157 86.8277 499.684 90.3852 501.337C93.9427 502.99 101.095 495.144 106.361 483.811Z" fill="#2F2E41"/>
<path d="M27.4476 514.562C30.9147 512.727 28.9863 502.286 23.1404 491.242C17.2945 480.198 9.74482 472.732 6.27773 474.568C2.81063 476.403 4.73905 486.844 10.585 497.888C16.4309 508.932 23.9805 516.397 27.4476 514.562Z" fill="#2F2E41"/>
<path d="M78.7994 442.21C103.791 442.21 124.051 421.95 124.051 396.959C124.051 371.967 103.791 351.707 78.7994 351.707C53.8076 351.707 33.5477 371.967 33.5477 396.959C33.5477 421.95 53.8076 442.21 78.7994 442.21Z" fill="#2F2E41"/>
<path d="M65.7096 430.681L52.1821 428.232L47.7946 452.469L61.3221 454.918L65.7096 430.681Z" fill="#2F2E41"/>
<path d="M92.7643 435.578L79.2368 433.129L74.8493 457.366L88.3767 459.814L92.7643 435.578Z" fill="#2F2E41"/>
<path d="M92.7144 469.045C94.2478 467.234 91.5768 462.452 86.7486 458.363C81.9203 454.274 76.7633 452.427 75.2299 454.237C73.6965 456.048 76.3675 460.83 81.1957 464.919C86.024 469.008 91.181 470.855 92.7144 469.045Z" fill="#2F2E41"/>
<path d="M66.2232 464.246C67.7566 462.435 65.0856 457.653 60.2573 453.564C55.4291 449.475 50.2721 447.628 48.7387 449.438C47.2053 451.249 49.8763 456.032 54.7045 460.121C59.5327 464.21 64.6898 466.057 66.2232 464.246Z" fill="#2F2E41"/>
<path d="M81.9673 401.359C90.5088 401.359 97.4331 394.435 97.4331 385.893C97.4331 377.352 90.5088 370.428 81.9673 370.428C73.4258 370.428 66.5016 377.352 66.5016 385.893C66.5016 394.435 73.4258 401.359 81.9673 401.359Z" fill="white"/>
<path d="M88.3237 385.498C91.1709 385.498 93.479 383.19 93.479 380.343C93.479 377.496 91.1709 375.188 88.3237 375.188C85.4765 375.188 83.1685 377.496 83.1685 380.343C83.1685 383.19 85.4765 385.498 88.3237 385.498Z" fill="#3F3D56"/>
<path d="M43.1021 347.725C42.4216 330.972 56.8601 316.782 75.3514 316.031C93.8428 315.28 109.385 328.252 110.065 345.005C110.746 361.758 97.8918 365.564 79.4005 366.315C60.9091 367.066 43.7826 364.478 43.1021 347.725Z" fill="#60A8EB"/>
<path d="M122.17 395.641C134.35 392.849 143.513 387.486 142.637 383.663C141.761 379.839 131.176 379.003 118.996 381.795C106.816 384.586 97.6528 389.949 98.5292 393.773C99.4057 397.597 109.99 398.433 122.17 395.641Z" fill="#2F2E41"/>
<path d="M33.3427 410.409C45.5227 407.617 54.686 402.254 53.8096 398.43C52.9331 394.607 42.3488 393.77 30.1688 396.562C17.9887 399.354 8.82537 404.717 9.70182 408.541C10.5783 412.364 21.1626 413.201 33.3427 410.409Z" fill="#2F2E41"/>
<path d="M66.371 414.792C65.8839 417.483 66.4856 420.257 68.0439 422.504C69.6021 424.751 71.9892 426.287 74.68 426.774C77.3707 427.261 80.1448 426.66 82.3919 425.101C84.639 423.543 86.1751 421.156 86.6622 418.465C87.6766 412.862 83.3443 410.879 77.741 409.865C72.1378 408.85 67.3854 409.189 66.371 414.792Z" fill="white"/>
<path d="M562.163 596.388H564.739L559.586 252H557.01L557.112 258.871H499.366L499.469 252H496.892L491.739 596.388H494.315L494.65 574.059H561.828L562.163 596.388ZM558.449 348.188H498.029L498.659 306.106H557.819L558.449 348.188ZM558.487 350.765L559.117 392.847H497.361L497.991 350.765H558.487ZM559.156 395.424L559.785 437.506H496.693L497.323 395.424H559.156ZM559.824 440.082L560.453 482.165H496.025L496.654 440.082H559.824ZM560.492 484.741L561.122 526.824H495.356L495.986 484.741H560.492ZM557.151 261.447L557.781 303.529H498.698L499.327 261.447H557.151ZM494.688 571.482L495.318 529.4H561.16L561.79 571.482H494.688Z" fill="#3F3D56"/>
<path d="M515.475 370.618C538.678 370.618 557.488 351.809 557.488 328.606C557.488 305.403 538.678 286.594 515.475 286.594C492.273 286.594 473.463 305.403 473.463 328.606C473.463 351.809 492.273 370.618 515.475 370.618Z" fill="#2F2E41"/>
<path d="M540.188 357.641L527.628 359.914L531.702 382.416L544.261 380.142L540.188 357.641Z" fill="#2F2E41"/>
<path d="M515.069 362.187L502.51 364.461L506.584 386.963L519.143 384.689L515.069 362.187Z" fill="#2F2E41"/>
<path d="M513.251 391.698C517.733 387.902 520.213 383.462 518.79 381.781C517.366 380.1 512.578 381.814 508.095 385.611C503.613 389.407 501.133 393.847 502.557 395.528C503.98 397.209 508.768 395.494 513.251 391.698Z" fill="#2F2E41"/>
<path d="M537.846 387.246C542.328 383.45 544.808 379.009 543.385 377.328C541.961 375.647 537.173 377.362 532.69 381.158C528.208 384.955 525.728 389.395 527.152 391.076C528.575 392.757 533.363 391.042 537.846 387.246Z" fill="#2F2E41"/>
<path d="M512.534 332.688C520.464 332.688 526.893 326.259 526.893 318.329C526.893 310.399 520.464 303.971 512.534 303.971C504.604 303.971 498.176 310.399 498.176 318.329C498.176 326.259 504.604 332.688 512.534 332.688Z" fill="white"/>
<path d="M506.633 317.969C509.276 317.969 511.419 315.826 511.419 313.183C511.419 310.539 509.276 308.396 506.633 308.396C503.99 308.396 501.847 310.539 501.847 313.183C501.847 315.826 503.99 317.969 506.633 317.969Z" fill="#3F3D56"/>
<path d="M548.617 282.901C549.249 267.347 535.844 254.173 518.677 253.476C501.509 252.779 487.08 264.822 486.448 280.376C485.816 295.929 497.75 299.463 514.917 300.161C532.085 300.858 547.986 298.455 548.617 282.901Z" fill="#1984E7"/>
<path d="M497.158 325.645C497.972 322.095 489.464 317.116 478.156 314.524C466.848 311.932 457.021 312.709 456.208 316.259C455.394 319.809 463.901 324.788 475.21 327.38C486.518 329.972 496.344 329.195 497.158 325.645Z" fill="#2F2E41"/>
<path d="M579.627 339.36C580.44 335.81 571.933 330.831 560.625 328.239C549.317 325.647 539.49 326.424 538.676 329.974C537.863 333.524 546.37 338.503 557.678 341.095C568.986 343.687 578.813 342.91 579.627 339.36Z" fill="#2F2E41"/>
<path d="M527.014 345.163C527.241 346.4 527.221 347.67 526.956 348.899C526.692 350.129 526.187 351.294 525.472 352.329C524.757 353.364 523.844 354.247 522.788 354.929C521.731 355.611 520.55 356.078 519.312 356.303C518.075 356.528 516.805 356.507 515.576 356.242C514.347 355.976 513.182 355.471 512.148 354.755C511.114 354.038 510.231 353.126 509.55 352.068C508.869 351.011 508.403 349.829 508.179 348.592L508.176 348.573C507.234 343.371 511.256 341.53 516.458 340.589C521.66 339.647 526.072 339.961 527.014 345.163Z" fill="white"/>
<path d="M873.281 503.236C901.074 503.236 923.604 480.705 923.604 452.912C923.604 425.119 901.074 402.589 873.281 402.589C845.488 402.589 822.957 425.119 822.957 452.912C822.957 480.705 845.488 503.236 873.281 503.236Z" fill="#60A8EB"/>
<path opacity="0.2" d="M836.124 419.299C831.43 430.279 830.793 442.571 834.327 453.977C837.861 465.384 845.336 475.162 855.416 481.564C865.497 487.967 877.525 490.576 889.352 488.927C901.179 487.277 912.034 481.476 919.978 472.56C917.11 479.268 912.818 485.273 907.4 490.158C901.981 495.043 895.565 498.692 888.597 500.852C881.628 503.011 874.273 503.63 867.041 502.664C859.81 501.699 852.875 499.173 846.716 495.262C840.558 491.35 835.324 486.146 831.376 480.011C827.428 473.876 824.862 466.955 823.854 459.73C822.847 452.504 823.422 445.146 825.541 438.164C827.659 431.183 831.27 424.746 836.124 419.299V419.299Z" fill="black"/>
<path d="M873.42 452.911H873.557L876.046 595.587H870.792L873.42 452.911Z" fill="#3F3D56"/>
<path d="M771.461 409.39C827.497 409.39 872.923 363.964 872.923 307.928C872.923 251.893 827.497 206.467 771.461 206.467C715.426 206.467 670 251.893 670 307.928C670 363.964 715.426 409.39 771.461 409.39Z" fill="#60A8EB"/>
<path opacity="0.2" d="M696.546 240.159C687.081 262.297 685.798 287.079 692.923 310.077C700.049 333.075 715.12 352.789 735.443 365.698C755.767 378.606 780.018 383.868 803.863 380.542C827.709 377.216 849.595 365.52 865.61 347.543C859.829 361.068 851.176 373.175 840.251 383.025C829.326 392.874 816.391 400.231 802.341 404.584C788.29 408.938 773.462 410.185 758.882 408.239C744.302 406.293 730.319 401.2 717.903 393.314C705.486 385.427 694.933 374.936 686.974 362.566C679.015 350.196 673.84 336.243 671.809 321.675C669.777 307.107 670.937 292.271 675.209 278.196C679.48 264.12 686.76 251.142 696.546 240.159V240.159Z" fill="black"/>
<path d="M771.74 307.927H772.019L777.037 595.587H766.444L771.74 307.927Z" fill="#3F3D56"/>
<path d="M1440.4 446.696H975.344V584.558H1440.4V446.696Z" fill="#F0F0F0"/>
<path d="M1234.98 475.188H1180.76V584.559H1234.98V475.188Z" fill="#CACACA"/>
<path d="M1413.29 284.019H1002.46V410.852H1413.29V284.019Z" fill="#F0F0F0"/>
<path d="M1454.94 291.831H960.807C959.982 291.831 959.176 291.584 958.492 291.123C957.808 290.661 957.278 290.005 956.97 289.24C956.662 288.475 956.59 287.635 956.763 286.828C956.936 286.022 957.346 285.285 957.941 284.714L1092.99 154.906V98.3646C1092.99 97.2681 1093.42 96.2169 1094.2 95.4415C1094.98 94.6662 1096.03 94.23 1097.12 94.2288H1123.78C1124.87 94.23 1125.92 94.6661 1126.7 95.4415C1127.47 96.2168 1127.91 97.2681 1127.91 98.3646V121.336L1138.11 111.532C1154.8 95.487 1176.95 86.3547 1200.1 85.9697C1223.25 85.5848 1245.69 93.9758 1262.9 109.456L1457.7 284.619C1458.32 285.179 1458.76 285.914 1458.96 286.727C1459.15 287.541 1459.1 288.395 1458.8 289.176C1458.5 289.957 1457.97 290.629 1457.28 291.103C1456.59 291.577 1455.77 291.831 1454.94 291.831V291.831Z" fill="#CACACA"/>
<path d="M1110.91 316.187C1114.35 316.187 1117.75 316.864 1120.93 318.18C1124.11 319.497 1127 321.426 1129.43 323.859C1131.86 326.291 1133.79 329.178 1135.11 332.356C1136.42 335.534 1137.1 338.94 1137.1 342.38V377.765H1084.71V342.38C1084.71 335.433 1087.47 328.771 1092.39 323.859C1097.3 318.946 1103.96 316.187 1110.91 316.187V316.187Z" fill="white"/>
<path d="M1207.87 316.646C1211.31 316.646 1214.72 317.323 1217.9 318.639C1221.07 319.956 1223.96 321.885 1226.39 324.317C1228.83 326.75 1230.76 329.637 1232.07 332.815C1233.39 335.993 1234.07 339.4 1234.07 342.839V378.224H1181.68V342.839C1181.68 339.4 1182.36 335.993 1183.67 332.815C1184.99 329.637 1186.92 326.75 1189.35 324.317C1191.78 321.885 1194.67 319.956 1197.85 318.639C1201.03 317.323 1204.43 316.646 1207.87 316.646Z" fill="white"/>
<path d="M1304.83 317.105C1308.27 317.105 1311.68 317.783 1314.86 319.099C1318.04 320.416 1320.92 322.345 1323.36 324.777C1325.79 327.21 1327.72 330.097 1329.03 333.275C1330.35 336.453 1331.03 339.859 1331.03 343.299V378.684H1278.64V343.299C1278.64 339.859 1279.32 336.453 1280.63 333.275C1281.95 330.097 1283.88 327.21 1286.31 324.777C1288.75 322.345 1291.63 320.416 1294.81 319.099C1297.99 317.783 1301.39 317.105 1304.83 317.105V317.105Z" fill="white"/>
<path d="M1343.44 473.81C1350.38 473.81 1357.05 476.569 1361.96 481.482C1366.87 486.394 1369.63 493.056 1369.63 500.003V535.388H1317.24V500.003C1317.24 493.056 1320 486.394 1324.91 481.482C1329.83 476.569 1336.49 473.81 1343.44 473.81Z" fill="white"/>
<path d="M1084.26 473.81C1091.2 473.81 1097.86 476.569 1102.78 481.482C1107.69 486.394 1110.45 493.056 1110.45 500.003V535.388H1058.06V500.003C1058.06 496.564 1058.74 493.157 1060.06 489.979C1061.37 486.801 1063.3 483.914 1065.73 481.482C1068.17 479.049 1071.05 477.12 1074.23 475.803C1077.41 474.487 1080.82 473.81 1084.26 473.81V473.81Z" fill="white"/>
<path d="M1508.34 448.848L1421.1 410.247C1420.63 410.04 1420.13 409.933 1419.62 409.933H1003.85C1003.37 409.933 1002.9 410.024 1002.46 410.203L907.504 448.805C906.715 449.126 906.061 449.711 905.655 450.461C905.25 451.211 905.117 452.079 905.281 452.916C905.445 453.752 905.894 454.506 906.552 455.048C907.21 455.59 908.036 455.887 908.889 455.887H933.526V582.72H930.769V595.587H1484.97V582.72H1480.38V455.887H1506.85C1507.7 455.887 1508.51 455.597 1509.17 455.066C1509.82 454.535 1510.28 453.795 1510.45 452.971C1510.63 452.146 1510.51 451.286 1510.13 450.536C1509.74 449.785 1509.11 449.19 1508.34 448.848V448.848ZM1473.03 582.72H940.879V455.887H1473.03V582.72Z" fill="#CACACA"/>
<path d="M1143.54 372.71H1076.44V383.739H1143.54V372.71Z" fill="#CACACA"/>
<path d="M1241.88 372.71H1174.79V383.739H1241.88V372.71Z" fill="#CACACA"/>
<path d="M1340.22 372.71H1273.13V383.739H1340.22V372.71Z" fill="#CACACA"/>
<path d="M1376.98 531.711H1309.89V542.74H1376.98V531.711Z" fill="#CACACA"/>
<path d="M1116.88 531.711H1049.79V542.74H1116.88V531.711Z" fill="#CACACA"/>
<path d="M1346.08 501.161L1345.77 497.203C1345.35 495.65 1341.47 500.522 1341.01 500.628C1339.79 500.37 1338.53 500.314 1337.29 500.461C1337.45 493.358 1336.36 496.578 1333.19 499.783C1322.96 504.966 1326.71 521.34 1338.35 521.422C1348.97 522.04 1354.25 507.613 1346.08 501.161Z" fill="#3F3D56"/>
<path d="M1347.52 517.221C1351.75 517.154 1357.08 532.011 1347.05 532.088C1341.86 532.128 1332.67 533.14 1332.67 533.14C1332.67 533.14 1325.52 522.418 1328.71 515.748L1347.52 517.221Z" fill="#3F3D56"/>
<path d="M1338.21 525.073V532.77H1341.81L1344.66 524.933" fill="#3F3D56"/>
<path d="M1341.81 532.912C1341.73 532.831 1337.92 533.085 1338.07 532.771L1338.07 525.074C1338.71 524.043 1338.19 532.731 1338.35 532.631H1341.71C1341.87 532.534 1344.36 524.65 1344.71 524.802C1344.73 524.808 1344.74 524.818 1344.76 524.83C1344.77 524.843 1344.78 524.858 1344.79 524.874C1344.8 524.891 1344.8 524.909 1344.8 524.927C1344.8 524.946 1344.8 524.964 1344.79 524.982C1344.66 525.077 1342.08 532.96 1341.81 532.912Z" fill="white"/>
<path d="M1350.49 532.299C1350.59 533.564 1344.49 533.564 1344.59 532.298C1344.49 531.033 1350.59 531.033 1350.49 532.299Z" fill="#3F3D56"/>
<path d="M1346.07 531.458C1345.71 531.543 1344.52 525.704 1348.14 524.878C1344.62 526.754 1346.44 531.089 1346.07 531.458Z" fill="white"/>
<path d="M1351.06 530.175C1351.04 530.147 1351.03 530.117 1351.01 530.088L1350.55 530.105L1351.06 530.175Z" fill="#3F3D56"/>
<path d="M1366.35 525.727C1364.28 522.643 1360.28 524.045 1358.71 526.866C1356.85 530.269 1348.91 527.738 1349.9 532.308C1354.86 531.261 1369.53 534.841 1366.35 525.727Z" fill="#3F3D56"/>
<path d="M1337.74 520.408C1334.48 521.044 1328.74 517.01 1328.59 515.821C1328.57 515.79 1328.57 515.752 1328.58 515.717C1328.58 515.681 1328.61 515.651 1328.64 515.632C1328.67 515.613 1328.71 515.607 1328.74 515.615C1328.78 515.623 1328.81 515.644 1328.83 515.675C1329.94 517.248 1331.46 518.48 1333.23 519.232C1335.98 520.622 1340.99 520.654 1347.64 517.151C1344.74 519.2 1341.29 520.334 1337.74 520.408V520.408Z" fill="white"/>
<path d="M1338.35 513.287C1337.61 513.515 1336.98 511.741 1337.65 512.304C1337.65 512.49 1337.72 512.669 1337.85 512.8C1337.98 512.932 1338.16 513.006 1338.35 513.006C1338.95 513.065 1338.92 512.411 1339.19 512.164C1339.66 512.54 1338.86 513.358 1338.35 513.287Z" fill="white"/>
<path d="M1337.02 532.322C1336.74 532.36 1334.77 525.292 1334.64 525.185C1334.63 525.15 1334.63 525.111 1334.65 525.078C1334.66 525.045 1334.69 525.02 1334.73 525.009C1335.1 524.862 1336.98 532.045 1337.15 532.139C1337.16 532.16 1337.16 532.183 1337.15 532.204C1337.15 532.226 1337.14 532.247 1337.13 532.264C1337.12 532.282 1337.1 532.297 1337.08 532.307C1337.06 532.317 1337.04 532.322 1337.02 532.322V532.322Z" fill="white"/>
<path d="M1342.91 533.281C1343.01 534.546 1336.91 534.546 1337.02 533.281C1336.92 532.016 1343.01 532.016 1342.91 533.281Z" fill="#3F3D56"/>
<path d="M1338.14 533.141C1338.24 534.407 1332.14 534.407 1332.25 533.141C1332.14 531.876 1338.24 531.876 1338.14 533.141Z" fill="#3F3D56"/>
<path d="M1339.54 510.551C1339.58 511.108 1337.26 511.108 1337.3 510.551C1337.26 509.995 1339.58 509.995 1339.54 510.551Z" fill="white"/>
<path d="M1330.87 510.584C1331.19 510.2 1331.6 509.892 1332.05 509.681C1332.5 509.47 1333 509.36 1333.5 509.36C1334 509.36 1334.49 509.47 1334.95 509.681C1335.4 509.892 1335.8 510.2 1336.13 510.584C1339.74 507.228 1334.39 501.62 1330.87 505.081C1330.5 505.436 1330.2 505.863 1330 506.336C1329.8 506.809 1329.7 507.318 1329.7 507.832C1329.7 508.347 1329.8 508.855 1330 509.328C1330.2 509.801 1330.5 510.228 1330.87 510.584V510.584Z" fill="white"/>
<path d="M1341.14 510.584C1341.46 510.2 1341.87 509.892 1342.32 509.681C1342.77 509.47 1343.27 509.36 1343.77 509.36C1344.27 509.36 1344.76 509.47 1345.22 509.681C1345.67 509.892 1346.07 510.2 1346.4 510.584C1350.01 507.228 1344.66 501.62 1341.14 505.081C1340.77 505.436 1340.47 505.863 1340.27 506.336C1340.07 506.809 1339.97 507.318 1339.97 507.832C1339.97 508.347 1340.07 508.855 1340.27 509.328C1340.47 509.801 1340.77 510.228 1341.14 510.584V510.584Z" fill="white"/>
<path d="M1331.83 506.894C1332.17 506.903 1332.5 507.045 1332.73 507.289C1332.97 507.534 1333.1 507.861 1333.1 508.202C1333.1 508.543 1332.97 508.871 1332.73 509.115C1332.5 509.359 1332.17 509.501 1331.83 509.51C1331.49 509.501 1331.17 509.359 1330.93 509.115C1330.69 508.87 1330.56 508.543 1330.56 508.202C1330.56 507.861 1330.69 507.533 1330.93 507.289C1331.17 507.045 1331.49 506.903 1331.83 506.894V506.894Z" fill="#3F3D56"/>
<path d="M1342.1 506.894C1342.44 506.903 1342.77 507.045 1343 507.289C1343.24 507.534 1343.37 507.861 1343.37 508.202C1343.37 508.543 1343.24 508.871 1343 509.115C1342.77 509.359 1342.44 509.501 1342.1 509.51C1341.76 509.501 1341.44 509.359 1341.2 509.115C1340.96 508.87 1340.83 508.543 1340.83 508.202C1340.83 507.861 1340.96 507.533 1341.2 507.289C1341.44 507.045 1341.76 506.903 1342.1 506.894V506.894Z" fill="#3F3D56"/>
<path d="M1343.89 511.059C1344.19 511.067 1344.47 511.191 1344.68 511.405C1344.89 511.619 1345.01 511.906 1345.01 512.205C1345.01 512.504 1344.89 512.791 1344.68 513.005C1344.47 513.219 1344.19 513.344 1343.89 513.352C1343.59 513.344 1343.31 513.219 1343.1 513.005C1342.89 512.791 1342.78 512.504 1342.78 512.205C1342.78 511.906 1342.89 511.619 1343.1 511.405C1343.31 511.191 1343.59 511.067 1343.89 511.059V511.059Z" fill="#FF6584"/>
<path d="M1333.53 511.059C1333.83 511.067 1334.11 511.191 1334.32 511.405C1334.53 511.619 1334.65 511.906 1334.65 512.205C1334.65 512.504 1334.53 512.791 1334.32 513.005C1334.11 513.219 1333.83 513.344 1333.53 513.352C1333.23 513.344 1332.95 513.219 1332.74 513.005C1332.53 512.791 1332.41 512.504 1332.41 512.205C1332.41 511.906 1332.53 511.619 1332.74 511.405C1332.95 511.191 1333.23 511.067 1333.53 511.059V511.059Z" fill="#FF6584"/>
<path d="M1004.49 65.5794C1004.2 65.5791 1003.92 65.4689 1003.71 65.271C1003.5 65.0731 1003.37 64.8022 1003.35 64.5128C1002.6 54.3237 998.03 44.7934 990.555 37.8292C983.079 30.8649 973.25 26.9804 963.033 26.9529C961.811 26.9529 960.526 27.0151 959.215 27.1377C958.996 27.1583 958.776 27.1153 958.58 27.0139C958.385 26.9125 958.223 26.757 958.113 26.5659C953.42 18.3514 946.412 11.7009 937.963 7.44432C929.514 3.18776 919.999 1.51368 910.604 2.631C901.21 3.74831 892.353 7.60752 885.138 13.727C877.923 19.8465 872.67 27.9553 870.035 37.0415C869.965 37.2849 869.816 37.4984 869.612 37.6482C869.408 37.7979 869.16 37.8756 868.907 37.8689L868.602 37.8597C868.443 37.8543 868.285 37.8487 868.125 37.8487C860.376 37.873 852.868 40.5461 846.847 45.4245C840.826 50.3029 836.653 57.0934 835.023 64.6691C834.968 64.9266 834.827 65.1575 834.623 65.3233C834.419 65.489 834.163 65.5795 833.9 65.5794H757.062C756.911 65.5799 756.762 65.5506 756.622 65.4932C756.483 65.4357 756.356 65.3513 756.249 65.2448C756.142 65.1382 756.057 65.0116 756 64.8723C755.942 64.7329 755.912 64.5834 755.912 64.4325C755.912 64.2816 755.942 64.1322 756 63.9928C756.057 63.8534 756.142 63.7268 756.249 63.6202C756.356 63.5137 756.483 63.4293 756.622 63.3719C756.762 63.3144 756.911 63.2851 757.062 63.2856H832.982C834.894 55.4057 839.389 48.3931 845.752 43.3669C852.114 38.3406 859.977 35.5903 868.085 35.5549C870.972 26.2178 876.508 17.9199 884.021 11.6693C891.534 5.41868 900.7 1.48442 910.407 0.344459C920.113 -0.7955 929.942 0.907907 938.698 5.24773C947.455 9.58755 954.763 16.377 959.734 24.7913C960.862 24.7033 961.969 24.6591 963.033 24.6591C973.83 24.6883 984.218 28.7936 992.117 36.1533C1000.02 43.5131 1004.85 53.5845 1005.64 64.3522C1005.65 64.5025 1005.63 64.6533 1005.58 64.7962C1005.53 64.9391 1005.46 65.0711 1005.36 65.1848C1005.26 65.2985 1005.14 65.3917 1005.01 65.4589C1004.87 65.5261 1004.72 65.5662 1004.57 65.5767C1004.55 65.5785 1004.52 65.5794 1004.49 65.5794Z" fill="#CBCBCB"/>
<path d="M990.846 80.2841H802.75C802.446 80.2841 802.154 80.1633 801.939 79.9482C801.724 79.7331 801.603 79.4414 801.603 79.1372C801.603 78.833 801.724 78.5413 801.939 78.3262C802.154 78.1111 802.446 77.9902 802.75 77.9902H990.846C991.15 77.9902 991.442 78.1111 991.657 78.3262C991.872 78.5413 991.993 78.833 991.993 79.1372C991.993 79.4414 991.872 79.7331 991.657 79.9482C991.442 80.1633 991.15 80.2841 990.846 80.2841V80.2841Z" fill="#CBCBCB"/>
<path d="M848.627 96.9159H785.546C785.242 96.9159 784.95 96.7951 784.735 96.58C784.52 96.3649 784.399 96.0732 784.399 95.769C784.399 95.4648 784.52 95.1731 784.735 94.958C784.95 94.7429 785.242 94.6221 785.546 94.6221H848.627C848.931 94.6221 849.223 94.7429 849.438 94.958C849.653 95.1731 849.774 95.4648 849.774 95.769C849.774 96.0732 849.653 96.3649 849.438 96.58C849.223 96.7951 848.931 96.9159 848.627 96.9159V96.9159Z" fill="#CBCBCB"/>
<path d="M1607.04 151.175C1606.75 151.175 1606.47 151.065 1606.26 150.867C1606.05 150.669 1605.92 150.398 1605.9 150.109C1605.15 139.919 1600.58 130.389 1593.1 123.425C1585.63 116.461 1575.8 112.576 1565.58 112.549C1564.36 112.549 1563.07 112.611 1561.76 112.733C1561.54 112.754 1561.32 112.711 1561.13 112.61C1560.93 112.508 1560.77 112.353 1560.66 112.162C1555.97 103.947 1548.96 97.2966 1540.51 93.04C1532.06 88.7835 1522.54 87.1094 1513.15 88.2267C1503.76 89.344 1494.9 93.2032 1487.68 99.3227C1480.47 105.442 1475.22 113.551 1472.58 122.637C1472.51 122.881 1472.36 123.094 1472.16 123.244C1471.95 123.394 1471.71 123.471 1471.45 123.465L1471.15 123.455C1470.99 123.45 1470.83 123.444 1470.67 123.444C1462.92 123.469 1455.41 126.142 1449.39 131.02C1443.37 135.899 1439.2 142.689 1437.57 150.265C1437.51 150.522 1437.37 150.753 1437.17 150.919C1436.96 151.085 1436.71 151.175 1436.45 151.175H1359.61C1359.46 151.176 1359.31 151.146 1359.17 151.089C1359.03 151.031 1358.9 150.947 1358.8 150.84C1358.69 150.734 1358.6 150.607 1358.55 150.468C1358.49 150.329 1358.46 150.179 1358.46 150.028C1358.46 149.877 1358.49 149.728 1358.55 149.588C1358.6 149.449 1358.69 149.322 1358.8 149.216C1358.9 149.109 1359.03 149.025 1359.17 148.968C1359.31 148.91 1359.46 148.881 1359.61 148.881H1435.53C1437.44 141.001 1441.94 133.989 1448.3 128.963C1454.66 123.936 1462.52 121.186 1470.63 121.151C1473.52 111.813 1479.05 103.516 1486.57 97.265C1494.08 91.0144 1503.25 87.0801 1512.95 85.9402C1522.66 84.8002 1532.49 86.5036 1541.24 90.8434C1550 95.1832 1557.31 101.973 1562.28 110.387C1563.41 110.299 1564.52 110.255 1565.58 110.255C1576.38 110.284 1586.76 114.389 1594.66 121.749C1602.56 129.109 1607.39 139.18 1608.18 149.948C1608.19 150.098 1608.18 150.249 1608.13 150.392C1608.08 150.535 1608 150.667 1607.91 150.781C1607.81 150.894 1607.69 150.987 1607.55 151.055C1607.42 151.122 1607.27 151.162 1607.12 151.172C1607.09 151.174 1607.07 151.175 1607.04 151.175Z" fill="#CBCBCB"/>
<path d="M1593.39 165.88H1405.3C1404.99 165.88 1404.7 165.759 1404.49 165.544C1404.27 165.329 1404.15 165.037 1404.15 164.733C1404.15 164.429 1404.27 164.137 1404.49 163.922C1404.7 163.707 1404.99 163.586 1405.3 163.586H1593.39C1593.7 163.586 1593.99 163.707 1594.2 163.922C1594.42 164.137 1594.54 164.429 1594.54 164.733C1594.54 165.037 1594.42 165.329 1594.2 165.544C1593.99 165.759 1593.7 165.88 1593.39 165.88Z" fill="#CBCBCB"/>
<path d="M1451.17 182.511H1388.09C1387.79 182.511 1387.5 182.39 1387.28 182.175C1387.07 181.96 1386.95 181.668 1386.95 181.364C1386.95 181.06 1387.07 180.768 1387.28 180.553C1387.5 180.338 1387.79 180.217 1388.09 180.217H1451.17C1451.48 180.217 1451.77 180.338 1451.98 180.553C1452.2 180.768 1452.32 181.06 1452.32 181.364C1452.32 181.668 1452.2 181.96 1451.98 182.175C1451.77 182.39 1451.48 182.511 1451.17 182.511V182.511Z" fill="#CBCBCB"/>
<path d="M795.92 575.911C810.456 580.084 810.629 559.541 812.941 550.297C804.725 555.891 790.872 563.868 795.974 575.66" fill="#60A8EB"/>
<path d="M796.722 591.85C794.813 581.05 794.692 567.372 805.289 560.989C805.795 560.669 806.262 561.472 805.757 561.79C795.526 567.978 795.83 581.193 797.618 591.603C797.646 591.72 797.627 591.843 797.566 591.947C797.505 592.051 797.405 592.126 797.289 592.158C797.173 592.19 797.049 592.176 796.943 592.118C796.838 592.061 796.758 591.964 796.722 591.849L796.722 591.85Z" fill="#3F3D56"/>
<path d="M801.426 584.21C808.078 593.139 817.341 581.183 822.819 576.8C815.512 576.412 803.841 574.906 801.57 584.087" fill="#60A8EB"/>
<path d="M794.875 594.587C798.635 587.389 804.639 579.248 813.793 580.276C814.388 580.327 814.239 581.244 813.646 581.192C804.951 580.293 799.293 588.113 795.723 594.965C795.432 595.48 794.58 595.108 794.875 594.587Z" fill="#3F3D56"/>
<path d="M1534.48 575.911C1519.94 580.084 1519.77 559.541 1517.46 550.297C1525.68 555.891 1539.53 563.868 1534.43 575.66" fill="#60A8EB"/>
<path d="M1533.68 591.85C1535.59 581.05 1535.71 567.372 1525.11 560.989C1524.61 560.669 1524.14 561.472 1524.64 561.79C1534.87 567.978 1534.57 581.193 1532.78 591.603C1532.75 591.72 1532.77 591.843 1532.84 591.947C1532.9 592.051 1533 592.126 1533.11 592.158C1533.23 592.19 1533.35 592.176 1533.46 592.118C1533.56 592.061 1533.64 591.964 1533.68 591.849L1533.68 591.85Z" fill="#3F3D56"/>
<path d="M1528.97 584.21C1522.32 593.139 1513.06 581.183 1507.58 576.8C1514.89 576.412 1526.56 574.906 1528.83 584.087" fill="#60A8EB"/>
<path d="M1535.53 594.587C1531.77 587.389 1525.76 579.248 1516.61 580.276C1516.01 580.327 1516.16 581.244 1516.76 581.192C1525.45 580.293 1531.11 588.113 1534.68 594.965C1534.97 595.48 1535.82 595.108 1535.53 594.587Z" fill="#3F3D56"/>
<path d="M1595.6 561.569C1570.26 568.844 1569.96 533.033 1565.93 516.919C1580.25 526.671 1604.4 540.576 1595.51 561.133" fill="#60A8EB"/>
<path d="M1594.2 589.35C1597.53 570.524 1597.74 546.68 1579.27 535.554C1578.39 534.996 1577.57 536.396 1578.45 536.951C1596.29 547.738 1595.76 570.773 1592.64 588.92C1592.59 589.124 1592.63 589.339 1592.73 589.52C1592.84 589.7 1593.01 589.833 1593.22 589.888C1593.42 589.944 1593.63 589.919 1593.82 589.818C1594 589.718 1594.14 589.55 1594.2 589.349L1594.2 589.35Z" fill="#3F3D56"/>
<path d="M1586 576.032C1574.41 591.597 1558.26 570.755 1548.71 563.116C1561.45 562.439 1581.79 559.814 1585.75 575.819" fill="#60A8EB"/>
<path d="M1597.42 594.121C1590.87 581.573 1580.4 567.383 1564.45 569.174C1563.41 569.264 1563.67 570.861 1564.7 570.772C1579.86 569.204 1589.72 582.836 1595.95 594.781C1596.45 595.679 1597.94 595.03 1597.42 594.121Z" fill="#3F3D56"/>
</svg>
