<svg width="65" height="64" viewBox="0 0 65 64" fill="none" xmlns="http://www.w3.org/2000/svg">
<path fill-rule="evenodd" clip-rule="evenodd" d="M32.6694 0C14.998 0 0.669434 14.6857 0.669434 32.8143C0.669434 47.3143 9.84086 59.6 22.5551 63.9429C24.1551 64.2429 24.7409 63.2286 24.7409 62.3571C24.7409 61.5714 24.7123 59.5143 24.698 56.7714C15.798 58.7571 13.9123 52.3714 13.9123 52.3714C12.4551 48.5857 10.3551 47.5714 10.3551 47.5714C7.45515 45.5286 10.5694 45.5714 10.5694 45.5714C13.7837 45.8 15.4694 48.9571 15.4694 48.9571C18.3266 53.9714 22.9551 52.5286 24.7837 51.6857C25.0694 49.5714 25.898 48.1143 26.8123 47.3C19.7123 46.4714 12.2409 43.6571 12.2409 31.0857C12.2409 27.5 13.4837 24.5714 15.5266 22.2857C15.198 21.4571 14.098 18.1143 15.8409 13.6C15.8409 13.6 18.5266 12.7143 24.6409 16.9571C27.198 16.2286 29.9266 15.8714 32.6551 15.8571C35.3694 15.8714 38.1123 16.2286 40.6694 16.9571C46.7837 12.7143 49.4552 13.6 49.4552 13.6C51.198 18.1143 50.098 21.4571 49.7694 22.2857C51.8123 24.5857 53.0552 27.5143 53.0552 31.0857C53.0552 43.6857 45.5694 46.4571 38.4409 47.2714C39.5837 48.2857 40.6123 50.2857 40.6123 53.3429C40.6123 57.7286 40.5694 61.2714 40.5694 62.3429C40.5694 63.2143 41.1409 64.2429 42.7694 63.9143C55.5123 59.5857 64.6694 47.3 64.6694 32.8143C64.6694 14.6857 50.3409 0 32.6694 0Z" fill="#474747"/>
</svg>
