<svg width="127" height="127" viewBox="0 0 127 127" fill="none" xmlns="http://www.w3.org/2000/svg">
<path d="M123.878 3.38806H3.29092V123.976H123.878V3.38806Z" fill="url(#paint0_radial)"/>
<path d="M126.75 126.847H0.419929V0.517212H126.75V126.847ZM6.16219 121.105H121.007V6.25947H6.16219V121.105Z" fill="#F47521"/>
<path d="M66.4557 69.4243H43.4867V80.9088H66.4557V69.4243Z" fill="#F47521"/>
<path d="M100.909 55.0686H89.4249V98.1356H100.909V55.0686Z" fill="#F47521"/>
<path d="M95.1671 52.1973C98.3385 52.1973 100.909 49.6264 100.909 46.455C100.909 43.2837 98.3385 40.7128 95.1671 40.7128C91.9957 40.7128 89.4249 43.2837 89.4249 46.455C89.4249 49.6264 91.9957 52.1973 95.1671 52.1973Z" fill="#F47521"/>
<path d="M48.9418 29.2283L26.891 98.1354H38.9513L54.9714 48.0701L70.9915 98.1354H83.0519L61.0011 29.2283H48.9418Z" fill="#F47521"/>
<path d="M126.75 126.847H0.419929V0.517212H126.75V126.847Z" fill="url(#paint1_linear)"/>
<defs>
<radialGradient id="paint0_radial" cx="0" cy="0" r="1" gradientUnits="userSpaceOnUse" gradientTransform="translate(45.4008 30.1853) scale(100.996)">
<stop stop-color="#3C1605" stop-opacity="0.98"/>
<stop offset="1" stop-color="#1A1107"/>
</radialGradient>
<linearGradient id="paint1_linear" x1="-12.492" y1="28.2069" x2="139.662" y2="99.1573" gradientUnits="userSpaceOnUse">
<stop stop-color="white" stop-opacity="0.2"/>
<stop offset="1" stop-color="white" stop-opacity="0"/>
</linearGradient>
</defs>
</svg>
