<svg width="94" height="127" viewBox="0 0 94 127" fill="none" xmlns="http://www.w3.org/2000/svg">
<g clip-path="url(#clip0)">
<path d="M67.7932 77.863C70.2109 76.2097 73.5646 74.7789 73.5646 74.7789C73.5646 74.7789 64.0198 76.5063 54.5241 77.2958C42.9074 78.2579 30.4272 78.4551 24.1625 77.6163C9.339 75.6426 32.3015 70.1893 32.3015 70.1893C32.3015 70.1893 23.3976 69.5977 12.422 74.8772C-0.526493 81.1445 44.4856 84.0064 67.7932 77.863Z" fill="#5382A1"/>
<path d="M46.73 69.9426C42.0438 59.4072 26.2339 50.1544 46.73 33.9688C72.307 13.7862 59.1854 0.659668 59.1854 0.659668C64.4882 21.5088 40.5393 27.8253 31.8818 40.7788C25.9868 49.6364 34.7676 59.1359 46.73 69.9426Z" fill="#F8981D"/>
<path d="M74.9947 26.4683C75.0194 26.4683 31.7829 37.2753 52.4269 61.0602C58.519 68.0677 50.8237 74.3842 50.8237 74.3842C50.8237 74.3842 66.2885 66.3902 59.185 56.3972C52.5502 47.0705 47.4692 42.432 74.9947 26.4683Z" fill="#F8981D"/>
<path d="M73.491 93.2098C73.3677 93.5059 72.9977 93.8269 72.9977 93.8514C104.642 85.5364 93.0001 64.5143 77.8807 69.8443C76.5487 70.3131 75.8588 71.3987 75.8588 71.3987C75.8588 71.3987 76.697 71.0529 78.572 70.6583C86.2174 69.0547 97.1933 80.8979 73.491 93.2098Z" fill="#5382A1"/>
<path d="M85.132 108.581C85.132 108.581 88.7083 111.518 81.2103 113.812C66.9299 118.13 21.8189 119.437 9.28941 113.985C4.77587 112.036 13.2355 109.297 15.8995 108.73C18.6616 108.137 20.2648 108.236 20.2648 108.236C15.258 104.707 -12.1195 115.169 6.35414 118.155C56.7188 126.346 98.2045 114.478 85.132 108.581Z" fill="#5382A1"/>
<path d="M29.9824 98.3667C10.5715 103.795 41.7968 114.997 66.5099 104.412C62.4655 102.833 59.555 101.007 59.555 101.007C48.5299 103.104 43.4247 103.252 33.4107 102.117C25.1482 101.18 29.9824 98.3667 29.9824 98.3667Z" fill="#5382A1"/>
<path d="M74.3294 122.349C54.9188 126.001 30.9699 125.582 16.7875 123.237C16.7875 123.213 19.698 125.631 34.6445 126.593C57.3849 128.049 92.3097 125.779 93.1237 115.021C93.1239 115.021 91.5454 119.093 74.3294 122.349Z" fill="#5382A1"/>
<path d="M63.5762 87.757C48.9745 90.57 40.5149 90.4959 29.8355 89.3856C21.5727 88.5218 26.9743 84.5251 26.9743 84.5251C5.56595 91.6309 38.8625 99.6748 68.7799 90.9155C65.5987 89.8049 63.5762 87.757 63.5762 87.757Z" fill="#5382A1"/>
</g>
<defs>
<clipPath id="clip0">
<rect width="93.1496" height="126.33" fill="white" transform="translate(0 0.659668)"/>
</clipPath>
</defs>
</svg>
