<svg width="127" height="127" viewBox="0 0 127 127" fill="none" xmlns="http://www.w3.org/2000/svg">
<g clip-path="url(#clip0)">
<path d="M126.33 0.659912H0.000732422V126.989H126.33V0.659912Z" fill="#F0DB4F"/>
<path d="M68.7488 99.1856C68.7488 111.48 61.5298 117.091 51.0115 117.091C41.509 117.091 36.0104 112.185 33.1902 106.236L42.8621 100.398C44.7233 103.697 46.4153 106.489 50.504 106.489C54.3952 106.489 56.8773 104.966 56.8773 99.0167V58.6642H68.7488V99.1856Z" fill="#323330"/>
<path d="M96.8344 117.092C85.8088 117.092 78.6747 111.847 75.2061 104.966L84.8783 99.3827C87.4162 103.528 90.7433 106.602 96.5806 106.602C101.487 106.602 104.645 104.149 104.645 100.737C104.645 96.6759 101.431 95.2385 95.9885 92.8413L93.0277 91.5725C84.4554 87.9347 78.7873 83.3382 78.7873 73.6666C78.7873 64.7556 85.583 57.9879 96.1571 57.9879C103.714 57.9879 109.128 60.6104 113.02 67.491L103.771 73.4125C101.741 69.7748 99.5411 68.3371 96.1291 68.3371C92.6605 68.3371 90.461 70.5369 90.461 73.4125C90.461 76.9657 92.6605 78.4042 97.7645 80.6312L100.725 81.9003C110.82 86.2147 116.488 90.6423 116.488 100.568C116.489 111.226 108.085 117.092 96.8344 117.092Z" fill="#323330"/>
</g>
<defs>
<clipPath id="clip0">
<rect width="126.33" height="126.33" fill="white" transform="translate(0 0.659546)"/>
</clipPath>
</defs>
</svg>
