<svg width="1098" height="678" viewBox="0 0 1098 678" fill="none" xmlns="http://www.w3.org/2000/svg">
<path d="M752.966 629.555C765.297 650.889 749.902 677.57 725.261 677.57L616.976 677.57C605.539 677.57 594.972 671.466 589.257 661.56L308.587 175.028C302.94 165.239 302.874 153.198 308.415 143.349L361.537 48.9088C373.689 27.3062 404.728 27.1241 417.132 48.5826L752.966 629.555Z" fill="#C4C4C4"/>
<path d="M587.014 618.451C571.83 644.719 590.786 677.57 621.125 677.57L712.311 677.57C726.392 677.57 739.403 670.055 746.44 657.858L1022.87 178.68C1029.82 166.628 1029.9 151.802 1023.08 139.675L978.386 60.2205C963.424 33.6219 925.207 33.3977 909.934 59.8189L587.014 618.451Z" fill="#232323"/>
<path d="M1092.25 59.1195C1107.44 32.8524 1088.48 0.000523235 1058.14 0.000514508L966.958 0.000488281C952.877 0.000484231 939.866 7.51546 932.829 19.7129L656.401 498.891C649.449 510.943 649.368 525.769 656.19 537.896L700.883 617.35C715.845 643.949 754.062 644.173 769.335 617.752L1092.25 59.1195Z" fill="#232323"/>
<path d="M180.365 364.495C192.679 343.146 223.49 343.146 235.804 364.495L388.49 629.21C400.795 650.543 385.398 677.198 360.77 677.198L55.3988 677.198C30.7712 677.198 15.3744 650.543 27.6793 629.21L180.365 364.495Z" fill="#232323"/>
</svg>
