<svg width="103" height="64" viewBox="0 0 103 64" fill="none" xmlns="http://www.w3.org/2000/svg">
<g clip-path="url(#clip0)">
<path d="M68.0765 58.35C69.2405 60.3638 67.7873 62.8824 65.4613 62.8824H55.2397C54.1601 62.8824 53.1626 62.3062 52.6232 61.3711L26.1292 15.4448C25.5962 14.5208 25.59 13.3841 26.113 12.4544L31.1275 3.53974C32.2746 1.50055 35.2045 1.48336 36.3754 3.50894L68.0765 58.35Z" fill="black"/>
<path d="M53.4113 58.5902C51.978 61.0697 53.7674 64.1707 56.6312 64.1707H66.2388C67.568 64.1707 68.7961 63.4613 69.4604 62.31L95.5541 17.0778C96.2102 15.9402 96.2177 14.5407 95.574 13.396L91.355 5.89583C89.9427 3.38504 86.3352 3.36388 84.8935 5.85792L53.4113 58.5902Z" fill="black"/>
<path d="M102.103 5.5806C103.537 3.10111 101.747 4.90759e-05 98.8835 4.82521e-05L90.2763 4.57764e-05C88.9471 4.53941e-05 87.719 0.709424 87.0547 1.8608L60.9612 47.093C60.3049 48.2306 60.2973 49.6301 60.9413 50.7748L65.1601 58.2749C66.5724 60.7857 70.1799 60.8069 71.6216 58.3129L102.103 5.5806Z" fill="black"/>
<path d="M15.0257 34.4066C16.188 32.3913 19.0964 32.3913 20.2588 34.4066L34.6717 59.3945C35.8332 61.4082 34.3798 63.9243 32.055 63.9243H3.22943C0.904706 63.9243 -0.54868 61.4082 0.612845 59.3945L15.0257 34.4066Z" fill="black"/>
</g>
<defs>
<clipPath id="clip0">
<rect width="103" height="64" fill="white"/>
</clipPath>
</defs>
</svg>
