<svg width="196" height="102" viewBox="0 0 196 102" fill="none" xmlns="http://www.w3.org/2000/svg">
<path d="M0.000732422 92.8835H6.4695V67.1763L16.6188 89.5304C17.7341 92.2129 19.407 93.2188 22.6414 93.2188C25.8758 93.2188 27.3257 92.2129 28.5525 89.5304L38.5903 67.1763V92.8835H45.0591V67.1763C45.0591 64.7173 44.0553 63.4878 41.9362 62.8172C37.0289 61.3642 33.683 62.5937 32.2331 65.9468L22.4184 88.0774L12.8267 65.9468C11.3768 62.5937 8.03093 61.3642 3.12359 62.8172C1.00451 63.4878 0.000732422 64.6055 0.000732422 67.1763V92.8835Z" fill="#00678F"/>
<path d="M50.4122 71.9826H56.8809V86.0657C56.8809 86.8481 57.104 88.6364 60.673 88.7482C62.569 88.7482 74.7258 88.7482 74.8374 88.7482V71.8708H81.3061C81.3061 71.8708 81.3061 94.8956 81.3061 95.0073C81.3061 100.708 74.2797 101.937 71.0453 101.937H50.6352V97.5781H71.1568C75.2835 97.131 74.8374 95.0073 74.8374 94.3367V92.6602H61.0076C54.5388 92.6602 50.4122 89.7541 50.4122 86.5128C50.4122 86.1775 50.6352 72.0944 50.4122 71.9826Z" fill="#00678F"/>
<path d="M190.271 55.5519C186.256 55.4402 183.245 55.8872 180.568 56.8932C179.788 57.2285 178.672 57.2285 178.561 58.1227C179.007 58.5697 179.007 59.1286 179.341 59.6874C179.899 60.6934 181.014 62.0346 181.907 62.7053C182.91 63.4876 184.026 64.27 185.141 65.0524C187.037 66.2819 189.268 66.9525 191.164 68.182C192.279 68.8526 193.394 69.7468 194.398 70.5292C194.956 70.9763 195.29 71.5351 195.959 71.8705V71.7587C195.625 71.3116 195.513 70.641 195.179 70.1939C194.733 69.7468 194.175 69.2997 193.729 68.7409C192.279 66.8408 190.495 65.0524 188.598 63.7112C187.037 62.5935 183.468 61.1405 182.91 59.2404C182.91 59.2404 182.91 59.2404 182.799 59.1286C183.914 59.0168 185.141 58.6815 186.256 58.3462C187.929 57.8991 189.491 58.0109 191.275 57.5638C192.056 57.3403 192.837 57.1167 193.617 56.8932C193.617 56.7814 193.617 56.5579 193.617 56.4461C192.725 55.5519 192.056 54.3225 191.164 53.5401C188.598 51.3046 185.81 49.181 182.91 47.3927C181.349 46.3867 179.341 45.7161 177.78 44.9337C177.222 44.5984 176.219 44.4866 175.884 44.0395C174.992 42.9218 174.434 41.4688 173.876 40.2393C172.427 37.4451 171.088 34.4273 169.75 31.5212C168.858 29.6211 168.3 27.6093 167.185 25.8209C162.054 17.3264 156.478 12.1849 147.89 7.15522C145.994 6.14928 143.875 5.7022 141.533 5.14335C140.306 5.14335 139.079 5.03157 137.852 4.9198C137.071 4.58449 136.291 3.57855 135.51 3.13147C132.722 1.34314 125.361 -2.56883 123.242 2.57262C121.903 5.81397 125.249 9.05532 126.364 10.6201C127.257 11.7378 128.26 13.0791 128.93 14.3085C129.264 15.2027 129.376 16.0969 129.71 16.991C130.491 19.2265 131.272 21.5736 132.276 23.6973C132.833 24.7032 133.391 25.8209 134.172 26.8269C134.618 27.3857 135.287 27.6093 135.398 28.5034C134.729 29.5094 134.618 30.9624 134.283 32.1919C132.499 37.7804 133.168 44.8219 135.733 48.9575C136.514 50.1869 138.41 52.9812 140.975 51.8635C143.206 50.9693 142.759 48.1751 143.317 45.6043C143.429 45.0455 143.317 44.5984 143.652 44.2631V44.3749C144.321 45.7161 144.99 47.1691 145.659 48.5104C147.221 50.9693 149.897 53.5401 152.128 55.2166C153.355 56.1108 154.247 57.6756 155.809 58.2344V58.1227C155.809 58.1227 155.809 58.1227 155.697 58.1227C155.362 57.6756 154.916 57.452 154.582 57.1167C153.689 56.2226 152.686 55.1048 152.016 54.0989C149.897 51.3046 148.113 48.1751 146.44 45.0455C145.659 43.4807 144.99 41.8041 144.321 40.2393C143.986 39.6805 143.986 38.7863 143.54 38.451C142.759 39.5687 141.644 40.4629 141.198 41.8041C140.306 43.9278 140.194 46.6103 139.86 49.2928C139.637 49.2928 139.748 49.2928 139.637 49.4045C138.075 48.9575 137.518 47.3927 136.848 45.9396C135.398 42.363 135.064 36.6627 136.402 32.6389C136.737 31.633 138.298 28.2799 137.629 27.2739C137.294 26.3798 136.291 25.8209 135.733 25.0385C135.064 24.1444 134.395 22.9149 133.949 21.7972C132.722 19.0029 132.164 15.8733 130.826 13.0791C130.268 11.7378 129.153 10.3966 128.372 9.27886C127.48 7.93761 126.364 6.93168 125.584 5.36689C125.361 4.80803 125.026 3.91387 125.361 3.35501C125.472 2.90793 125.695 2.79616 126.03 2.68439C126.699 2.12554 128.484 2.79616 129.153 3.13147C131.049 3.91387 132.499 4.58449 134.06 5.59043C134.729 6.03751 135.51 7.04345 136.402 7.26699C136.737 7.26699 137.071 7.26699 137.406 7.26699C138.967 7.6023 140.752 7.37876 142.313 7.82584C144.99 8.72001 147.332 9.94948 149.451 11.2907C155.92 15.4262 161.385 21.3501 164.954 28.3917C165.512 29.5094 165.846 30.6271 166.292 31.7448C167.296 34.2037 168.635 36.6627 169.638 39.1216C170.642 41.4688 171.646 43.816 173.207 45.8279C173.988 46.8338 176.888 47.3927 178.338 47.9515C179.341 48.3986 180.903 48.8457 181.795 49.2928C183.468 50.2987 185.141 51.5282 186.814 52.6459C187.595 53.3165 190.16 54.546 190.271 55.5519Z" fill="#00678F"/>
<path d="M139.525 12.2971C138.633 12.2971 138.075 12.4089 137.518 12.5207C137.518 12.5207 137.518 12.5207 137.518 12.6324C137.518 12.6324 137.518 12.6324 137.629 12.6324C138.075 13.4148 138.744 13.9737 139.191 14.6443C139.637 15.4267 139.971 16.2091 140.306 16.9915L140.417 16.8797C141.087 16.4326 141.421 15.5385 141.421 14.4208C141.087 14.0855 141.087 13.7501 140.864 13.4148C140.529 12.856 139.86 12.6324 139.525 12.2971Z" fill="#00678F"/>
<path d="M86.3254 92.8833H105.063C107.293 92.8833 109.301 92.4362 111.085 91.6538C113.873 90.3125 115.212 88.636 115.212 86.2888V81.4827C115.212 79.5826 113.65 77.906 110.639 76.6765C109.078 76.1177 107.07 75.7824 105.063 75.7824H97.2554C94.5786 75.7824 93.3518 75 93.0172 73.2116C93.0172 72.9881 93.0172 72.7645 93.0172 72.6528V69.7467C93.0172 69.635 93.0172 69.4114 93.0172 69.1879C93.3518 67.8466 94.021 67.5113 96.3631 67.2878C96.5862 67.2878 96.8092 67.2878 96.9208 67.2878H115.435V62.9287H97.2554C94.5786 62.9287 93.2403 63.0405 92.0134 63.4876C88.2214 64.717 86.4369 66.6172 86.4369 69.9703V73.5469C86.4369 76.453 89.6713 79.0237 95.2478 79.5826C95.8055 79.5826 96.4747 79.5826 97.1438 79.5826H103.836C104.059 79.5826 104.282 79.5826 104.505 79.5826C106.512 79.8061 107.405 80.1414 108.074 80.9238C108.52 81.3709 108.52 81.7062 108.52 82.1533V85.9535C108.52 86.4006 108.185 86.9594 107.628 87.5183C107.07 88.0771 106.066 88.4125 104.839 88.4125C104.616 88.4125 104.393 88.4125 104.17 88.4125H86.3254V92.8833Z" fill="#E38D1A"/>
<path d="M155.697 85.2828C155.697 89.7536 159.043 92.2126 165.734 92.6596C166.404 92.6596 166.961 92.7714 167.63 92.7714H184.583V88.4124H167.519C163.727 88.4124 162.277 87.5182 162.277 85.171V62.8169H155.808L155.697 85.2828Z" fill="#E38D1A"/>
<path d="M119.339 85.5064V70.082C119.339 66.1701 122.127 63.7111 127.592 63.0405C128.15 63.0405 128.819 62.9287 129.376 62.9287H141.756C142.425 62.9287 142.983 62.9287 143.652 63.0405C149.117 63.8229 151.794 66.1701 151.794 70.082V85.5064C151.794 88.7477 150.679 90.4243 148.002 91.542L154.359 97.354H146.887L141.756 92.6597L136.514 92.995H129.599C128.484 92.995 127.146 92.8832 125.807 92.5479C121.346 91.3184 119.339 89.083 119.339 85.5064ZM126.365 85.1711C126.365 85.3946 126.477 85.6181 126.477 85.8417C126.811 87.63 128.484 88.6359 131.049 88.6359H136.96L131.607 83.718H139.08L143.764 87.9653C144.656 87.5182 145.214 86.7358 145.437 85.8417C145.437 85.6181 145.437 85.3946 145.437 85.1711V70.4173C145.437 70.1938 145.437 69.9703 145.437 69.8585C145.102 68.1819 143.429 67.176 140.864 67.176H131.049C128.15 67.176 126.254 68.4055 126.254 70.4173L126.365 85.1711Z" fill="#E38D1A"/>
<path d="M187.484 92.8834H188.376V89.195H189.603V88.4126H186.146V89.195H187.484V92.8834ZM194.734 92.8834H195.626V88.5244H194.288L193.172 91.5422L191.945 88.5244H190.607V92.8834H191.499V89.5303L192.726 92.8834H193.395L194.622 89.5303L194.734 92.8834Z" fill="#E38D1A"/>
</svg>
