<svg width="131" height="127" viewBox="0 0 131 127" fill="none" xmlns="http://www.w3.org/2000/svg">
<path d="M23.675 0.517212H107.367C120.056 0.517212 130.315 10.7748 130.315 23.4617V103.902C130.315 116.589 120.056 126.847 107.367 126.847H23.675C10.9862 126.847 0.727173 116.589 0.727173 103.902V23.4617C0.727173 10.7748 10.9862 0.517212 23.675 0.517212Z" fill="#001E36"/>
<path d="M29.8843 89.11V33.5573C29.8843 33.1794 30.0463 32.9634 30.4243 32.9634C31.3422 32.9634 32.2061 32.9634 33.448 32.9095C34.7438 32.8555 36.0937 32.8555 37.5516 32.8015C39.0094 32.7475 40.5753 32.7475 42.2491 32.6935C43.923 32.6395 45.5428 32.6395 47.1627 32.6395C51.5902 32.6395 55.2619 33.1794 58.2856 34.3131C60.9853 35.2309 63.4691 36.7425 65.5209 38.7401C67.2487 40.4677 68.5986 42.5731 69.4625 44.8946C70.2724 47.1621 70.7044 49.4835 70.7044 51.9129C70.7044 56.5558 69.6245 60.3889 67.4647 63.4122C65.3049 66.4354 62.2812 68.7029 58.7715 69.9986C55.0999 71.3483 51.0503 71.8342 46.6227 71.8342C45.3268 71.8342 44.4629 71.8342 43.923 71.7802C43.383 71.7262 42.6271 71.7262 41.6012 71.7262V89.056C41.6552 89.4339 41.3852 89.7579 41.0072 89.8118C40.9532 89.8118 40.8993 89.8118 40.7913 89.8118H30.5322C30.1003 89.8118 29.8843 89.5959 29.8843 89.11ZM41.6552 43.383V61.5226C42.4111 61.5766 43.113 61.6306 43.761 61.6306H46.6227C48.7285 61.6306 50.8343 61.3067 52.8321 60.6588C54.5599 60.1729 56.0718 59.1472 57.2597 57.7975C58.3936 56.4478 58.9335 54.6123 58.9335 52.2368C58.9875 50.5632 58.5556 48.8896 57.6916 47.432C56.7737 46.0283 55.4779 44.9486 53.912 44.3547C51.9142 43.5449 49.7544 43.221 47.5406 43.275C46.1367 43.275 44.8949 43.275 43.869 43.329C42.7891 43.275 42.0331 43.329 41.6552 43.383Z" fill="#31A8FF"/>
<path d="M104.397 58.2293C102.777 57.3655 101.05 56.7716 99.2137 56.3937C97.2159 55.9618 95.2181 55.6919 93.1663 55.6919C92.0864 55.6379 90.9525 55.7999 89.9266 56.0698C89.2247 56.2318 88.6308 56.6097 88.2528 57.1495C87.9828 57.5814 87.8208 58.1213 87.8208 58.6072C87.8208 59.0931 88.0368 59.579 88.3608 60.0108C88.8467 60.6047 89.4947 61.0906 90.1966 61.4685C91.4385 62.1163 92.7344 62.7102 94.0302 63.2501C96.946 64.2218 99.7537 65.5715 102.345 67.1911C104.127 68.3249 105.585 69.8365 106.611 71.6721C107.475 73.3997 107.907 75.2892 107.853 77.2327C107.907 79.7701 107.151 82.3075 105.747 84.413C104.235 86.5725 102.129 88.2461 99.6997 89.2179C97.054 90.3516 93.8143 90.9455 89.9266 90.9455C87.4429 90.9455 85.0131 90.7295 82.5833 90.2436C80.6935 89.9197 78.8037 89.3258 77.0759 88.516C76.6979 88.3001 76.4279 87.9222 76.4819 87.4903V78.0965C76.4819 77.9346 76.5359 77.7186 76.6979 77.6106C76.8599 77.5027 77.0219 77.5567 77.1839 77.6646C79.2897 78.9063 81.5034 79.7701 83.8792 80.31C85.931 80.8499 88.0908 81.1198 90.2506 81.1198C92.3024 81.1198 93.7603 80.8499 94.7322 80.364C95.5961 79.9861 96.19 79.0683 96.19 78.0965C96.19 77.3407 95.7581 76.6389 94.8942 75.937C94.0302 75.2352 92.2484 74.4254 89.6027 73.3996C86.8489 72.4279 84.3112 71.1322 81.9354 69.5126C80.2616 68.3249 78.8577 66.7592 77.8318 64.9237C76.9679 63.1961 76.5359 61.3065 76.5899 59.417C76.5899 57.0955 77.2378 54.8821 78.4257 52.8846C79.7756 50.7251 81.7734 48.9975 84.0952 47.9177C86.6329 46.6221 89.8186 46.0282 93.6523 46.0282C95.8661 46.0282 98.1339 46.1902 100.348 46.5141C101.967 46.73 103.533 47.1619 104.991 47.7558C105.207 47.8098 105.423 48.0257 105.531 48.2417C105.585 48.4576 105.639 48.6736 105.639 48.8895V57.6894C105.639 57.9054 105.531 58.1213 105.369 58.2293C104.883 58.3373 104.613 58.3373 104.397 58.2293Z" fill="#31A8FF"/>
</svg>
