<svg width="128" height="127" viewBox="0 0 128 127" fill="none" xmlns="http://www.w3.org/2000/svg">
<path d="M127.285 0.517212H0.956116V126.847H127.285V0.517212Z" fill="#EA77FF"/>
<path d="M121.726 6.07629H6.51392V121.289H121.726V6.07629Z" fill="#2A0034"/>
<path d="M33.9561 31.2868C33.9561 30.8523 34.031 30.6781 34.4044 30.6781C37.2448 30.5917 42.852 30.5042 48.5331 30.5042C63.1846 30.5042 68.7737 39.0292 68.8474 49.1117C68.8474 62.9312 58.5496 68.1694 47.561 68.1694C45.4685 68.1694 43.4498 68.1694 42.9265 68.1694V87.9139C42.9265 88.4347 42.7768 88.6089 42.4034 88.6089H34.4794C34.1055 88.6089 33.9563 88.435 33.9563 88.0005V31.2868H33.9561ZM42.9262 59.7394C43.524 59.827 44.6453 59.9136 47.7856 59.9136C53.6909 59.9136 59.3723 58.2294 59.3723 49.5378C59.3723 42.5847 55.5595 39.0136 48.5331 39.0136C45.6177 39.0136 43.524 39.1012 42.9262 39.1875V59.7394Z" fill="#EA77FF"/>
<path d="M95.3715 44.8709C95.6837 44.8541 96.0761 44.8709 96.3891 44.9585C96.7815 45.0451 96.8592 45.1327 96.8592 45.8275V53.3655C96.8592 53.8 96.7024 53.974 96.233 53.974C91.7685 53.8 89.6584 53.6597 86.4701 54.9651V87.6614C86.4701 88.1829 86.313 88.3564 85.8436 88.3564H77.6222C77.1518 88.3564 76.995 88.1832 76.995 87.6614V58.3712C76.995 54.5467 76.8378 51.6598 76.6035 48.7919C76.5258 48.4438 76.6817 48.2696 77.0739 48.2696C77.0741 48.2693 84.6468 45.4487 95.3715 44.8709Z" fill="#EA77FF"/>
</svg>
