<svg width="126" height="127" viewBox="0 0 126 127" fill="none" xmlns="http://www.w3.org/2000/svg">
<g clip-path="url(#clip0)">
<path d="M45.7171 59.4728H74.7485C82.8222 59.4728 89.2647 52.8126 89.2647 44.7121V17.0124C89.2647 9.12963 82.6318 3.23073 74.7485 1.89874C65.0172 0.294818 54.4431 0.37634 45.7171 1.92554C33.4302 4.10039 31.2015 8.64022 31.2015 17.0398V22.9682H60.2599V31.8H20.301C11.8472 31.8 4.45275 36.8831 2.14249 46.5335C-0.521489 57.597 -0.630094 64.5015 2.14249 76.0545C4.20846 84.6447 9.12854 90.7876 17.5825 90.7876H27.5589V77.5227C27.5587 67.9271 35.8496 59.4728 45.7171 59.4728Z" fill="#347AB4"/>
<path d="M123.362 50.9392C121.269 42.5397 117.301 36.2058 108.847 36.2058H97.9468V49.0908C97.9468 59.0942 89.4651 67.5206 79.788 67.5206H50.7564C42.8186 67.5206 36.2404 74.3171 36.2404 82.2814V109.954C36.2404 117.837 43.0905 122.458 50.7564 124.715C59.9441 127.406 68.7784 127.895 79.7877 124.715C87.1004 122.594 94.304 118.327 94.304 109.954V104.152H65.2997V95.1934H108.846C117.301 95.1934 120.426 89.2945 123.362 80.4603C126.407 71.3535 126.271 62.6005 123.362 50.9392Z" fill="#FFCA1D"/>
<path d="M43.8957 17.8389C40.9998 17.8389 38.652 15.4648 38.652 12.543C38.678 9.59492 40.9998 7.22083 43.8957 7.22083C46.7655 7.22083 49.1396 9.6209 49.1396 12.543C49.1394 15.4648 46.7915 17.8389 43.8957 17.8389Z" fill="white"/>
<path d="M79.1283 120.22C76.2325 120.22 73.8844 117.846 73.8844 114.924C73.9107 111.976 76.2322 109.602 79.1283 109.602C81.9982 109.602 84.3723 112.002 84.3723 114.924C84.3723 117.846 82.0245 120.22 79.1283 120.22Z" fill="white"/>
</g>
<defs>
<clipPath id="clip0">
<rect width="125.698" height="126.33" fill="white" transform="translate(0 0.659546)"/>
</clipPath>
</defs>
</svg>
