<svg width="484" height="500" viewBox="0 0 484 500" fill="none" xmlns="http://www.w3.org/2000/svg">
<path id="quora" fill-rule="evenodd" clip-rule="evenodd" d="M257.014 389.876C239.703 355.779 219.396 321.338 179.782 321.338C172.209 321.338 164.646 322.594 157.705 325.764L144.248 298.811C160.648 284.73 187.147 273.566 221.21 273.566C274.199 273.566 301.394 299.109 322.983 331.717C335.799 303.879 341.892 266.286 341.892 219.687C341.892 103.322 305.527 43.5725 220.587 43.5725C136.883 43.5725 100.717 103.322 100.717 219.687C100.717 335.438 136.883 394.573 220.587 394.573C233.891 394.573 245.94 393.11 257.014 389.876ZM277.764 430.486C259.415 435.409 239.92 438.128 220.587 438.128C109.129 438.128 0 349.122 0 219.687C0 89.0238 109.129 0 220.587 0C333.913 0 441.995 88.3825 441.995 219.687C441.995 292.723 407.941 352.076 358.445 390.436C374.438 414.418 390.901 430.342 413.826 430.342C438.845 430.342 448.936 410.994 450.624 395.82H483.206C485.111 416.025 475.011 500 383.951 500C328.795 500 299.634 468.007 277.764 430.486Z" fill="#B92B27"/>
</svg>
