<svg width="142" height="127" viewBox="0 0 142 127" fill="none" xmlns="http://www.w3.org/2000/svg">
<g clip-path="url(#clip0)">
<path d="M70.9841 76.3396C77.9827 76.3396 83.6563 70.666 83.6563 63.6673C83.6563 56.6687 77.9827 50.9951 70.9841 50.9951C63.9854 50.9951 58.3118 56.6687 58.3118 63.6673C58.3118 70.666 63.9854 76.3396 70.9841 76.3396Z" fill="#00D8FF"/>
<path d="M70.9837 92.6972C53.187 92.6972 37.6371 90.602 25.9998 86.6135C18.452 84.0387 12.0402 80.6056 7.47114 76.6928C2.62439 72.5529 0.0495605 68.0343 0.0495605 63.6672C0.0495605 55.2864 9.23818 47.0822 24.6619 41.7306C37.2837 37.3383 53.7424 34.8896 70.9584 34.8896C87.8716 34.8896 104.103 37.2625 116.649 41.6044C123.995 44.1288 130.18 47.4104 134.572 51.0455C139.343 55.0339 141.867 59.401 141.867 63.6672C141.867 72.3762 131.593 81.1862 115.034 86.664C103.321 90.5515 87.6696 92.6972 70.9837 92.6972ZM70.9837 40.9481C54.6512 40.9481 38.4953 43.321 26.6814 47.4356C12.4946 52.3834 6.13323 59.1486 6.13323 63.6672C6.13323 68.3625 12.9742 75.7588 27.9688 80.8832C38.975 84.6445 53.8686 86.6387 70.9837 86.6387C87.0385 86.6387 102.008 84.6193 113.14 80.9085C128.715 75.7336 135.834 68.3372 135.834 63.6672C135.834 61.2691 134.017 58.4418 130.71 55.6903C126.898 52.5096 121.344 49.6066 114.705 47.3094C102.765 43.22 87.2405 40.9481 70.9837 40.9481Z" fill="#00D8FF"/>
<path d="M42.232 126.827C39.6572 126.827 37.3852 126.271 35.4667 125.161C28.2219 120.97 25.6975 108.904 28.752 92.8741C31.2511 79.7223 37.36 64.2733 45.968 49.3544C54.4246 34.7132 64.5725 21.839 74.5941 13.13C80.4506 8.03084 86.3828 4.29481 91.7345 2.32582C97.5657 0.180125 102.614 0.180125 106.3 2.30058C113.848 6.64245 116.347 19.971 112.813 37.0356C110.314 49.1524 104.356 63.7684 96.0258 78.2329C87.1401 93.6314 77.5476 106.051 68.2833 114.154C62.2753 119.405 56.0907 123.242 50.4361 125.236C47.4826 126.296 44.7059 126.827 42.232 126.827ZM48.5681 50.869L51.1934 52.3836C43.0398 66.5199 37.0066 81.6913 34.6842 94.0101C31.8822 108.777 34.5832 117.663 38.4707 119.91C39.43 120.465 40.6921 120.768 42.232 120.768C47.2554 120.768 55.1567 117.587 64.2948 109.611C73.0543 101.962 82.2177 90.0468 90.7752 75.2289C98.8026 61.3198 104.508 47.3349 106.881 35.8491C110.187 19.769 107.335 9.9241 103.271 7.57646C101.201 6.39002 97.8434 6.54148 93.8044 8.03084C89.1344 9.7474 83.8585 13.1048 78.5574 17.7243C69.0406 26.0042 59.3218 38.323 51.1934 52.4088L48.5681 50.869Z" fill="#00D8FF"/>
<path d="M99.7354 126.902C92.8692 126.902 84.1602 122.762 75.0725 114.937C64.9247 106.202 54.6001 93.202 45.9668 78.2831C37.485 63.6419 31.4266 48.4201 28.877 35.3692C27.3877 27.7457 27.11 20.7533 28.0692 15.124C29.1295 8.98983 31.6286 4.62271 35.3394 2.47702C42.8619 -1.8901 55.6603 2.60324 68.6859 14.19C77.925 22.3941 87.6185 34.8644 95.9741 49.3036C104.885 64.7021 110.868 79.2171 113.241 91.2835C114.78 99.109 115.033 106.379 113.947 112.286C112.786 118.572 110.161 123.04 106.374 125.236C104.481 126.347 102.234 126.902 99.7354 126.902ZM51.2175 75.2539C59.3964 89.3903 69.5442 102.189 79.0358 110.342C90.4205 120.137 99.4577 122.257 103.37 119.985C107.435 117.638 110.413 108.02 107.334 92.47C105.062 81.0599 99.3315 67.176 90.7487 52.3581C82.6961 38.449 73.4317 26.5088 64.6722 18.7338C52.4039 7.82863 42.458 5.38002 38.3938 7.72766C36.3238 8.9141 34.784 11.9181 34.0519 16.159C33.2189 21.0562 33.4713 27.3166 34.8345 34.208C37.2579 46.6026 43.0638 61.1681 51.2175 75.2539Z" fill="#00D8FF"/>
</g>
<defs>
<clipPath id="clip0">
<rect width="141.882" height="126.33" fill="white" transform="translate(0 0.659668)"/>
</clipPath>
</defs>
</svg>
