<svg width="169" height="127" viewBox="0 0 169 127" fill="none" xmlns="http://www.w3.org/2000/svg">
<g clip-path="url(#clip0)">
<path d="M144.983 73.2658C139.092 73.2918 133.99 74.7123 129.729 76.8166C128.177 73.686 126.573 70.951 126.309 68.8998C125.995 66.5061 125.652 65.0863 126.021 62.2459C126.389 59.4049 128.045 55.3808 128.019 55.092C127.993 54.8029 127.651 53.356 124.259 53.3296C120.866 53.3036 117.947 53.987 117.605 54.8812C117.262 55.7754 116.605 57.801 116.211 59.9049C115.606 62.982 109.425 73.9759 105.927 79.7092C104.77 77.4743 103.797 75.5011 103.586 73.9231C103.27 71.5294 102.929 70.1096 103.297 67.2692C103.665 64.4282 105.322 60.4041 105.295 60.1153C105.269 59.8262 104.927 58.3793 101.535 58.3529C98.1417 58.3269 95.2231 59.0103 94.8805 59.9049C94.5386 60.7987 94.1704 62.9029 93.4867 64.9289C92.8033 66.953 84.5707 85.2581 82.4141 90.019C81.3091 92.438 80.3629 94.3845 79.6788 95.7C79.5742 95.9101 79.4951 96.0419 79.4424 96.1473C79.5211 96.0159 79.5742 95.8838 79.5742 95.9372C78.9955 97.0675 78.6532 97.6989 78.6532 97.6989V97.7249C78.206 98.5663 77.7063 99.3288 77.4699 99.3288C77.3118 99.3288 76.9703 97.1202 77.549 94.0954C78.7846 87.7306 81.704 77.8425 81.6777 77.4999C81.6513 77.3158 82.2297 75.6065 79.7575 74.6856C77.3645 73.8177 76.4963 75.2646 76.2862 75.2646C76.0761 75.2646 75.918 75.791 75.918 75.791C75.918 75.791 78.5746 64.6394 70.8156 64.6394C65.9764 64.6394 59.2438 69.9525 55.9302 74.7654C53.8523 75.8964 49.3546 78.3421 44.6208 80.9457C42.8061 81.9453 40.9387 82.9705 39.1766 83.9441C39.0452 83.812 38.9398 83.6806 38.8084 83.5492C29.3929 73.503 12.0083 66.4018 12.7451 52.9091C13.0079 47.9908 14.7176 35.0779 46.1728 19.4026C71.9473 6.56807 92.5665 10.0925 96.1176 17.9298C101.219 29.1077 85.0971 49.9113 58.3236 52.9091C48.1189 54.0401 42.7541 50.0951 41.4127 48.6226C40.0185 47.071 39.808 46.9916 39.282 47.2811C38.4138 47.7544 38.9665 49.1222 39.282 49.9373C40.0712 52.0149 43.3584 55.6971 48.9608 57.5382C53.8783 59.1424 65.8454 60.037 80.3102 54.4347C96.5638 48.1749 109.215 30.7376 105.506 16.1414C101.719 1.30832 77.1284 -3.55758 53.8527 4.70062C39.9925 9.61887 25.0013 17.3515 14.2179 27.424C1.40971 39.4175 -0.641477 49.8583 0.199643 54.2246C3.1981 69.715 24.5537 79.8146 33.1014 87.2837C32.6805 87.5205 32.2859 87.731 31.918 87.9414C27.6312 90.0713 11.3512 98.5927 7.27449 107.588C2.67249 117.793 8.03691 125.104 11.5613 126.104C22.5548 129.154 33.8115 123.658 39.8607 114.636C45.9093 105.616 45.1732 93.8329 42.3856 88.4674C42.3588 88.3887 42.3065 88.3367 42.2805 88.257C43.3848 87.5999 44.5154 86.9422 45.6468 86.2848C47.8294 84.9961 49.96 83.812 51.8271 82.7871C50.7748 85.6278 50.0124 89.0454 49.6178 93.9907C49.1445 99.7764 51.5379 107.272 54.6414 110.218C56.0085 111.507 57.6655 111.533 58.6915 111.533C62.321 111.533 63.9512 108.535 65.766 104.958C68.0016 100.591 69.9741 95.5152 69.9741 95.5152C69.9741 95.5152 67.502 109.245 74.261 109.245C76.7331 109.245 79.2059 106.062 80.3099 104.432V104.458C80.3099 104.458 80.3629 104.353 80.4943 104.143C80.7571 103.748 80.8885 103.511 80.8885 103.511V103.432C81.8878 101.723 84.0711 97.8036 87.358 91.3341C91.6192 82.9701 95.6953 72.5286 95.6953 72.5286C95.6953 72.5286 96.0635 75.0805 97.3266 79.3147C98.0627 81.8131 99.6143 84.5484 100.85 87.205C99.8514 88.5725 99.246 89.3616 99.246 89.3616C99.246 89.3616 99.246 89.3876 99.2717 89.414C98.4829 90.4666 97.5891 91.5976 96.6685 92.7023C93.3018 96.6996 89.3041 101.276 88.7785 102.591C88.1468 104.143 88.3049 105.299 89.515 106.194C90.4088 106.878 91.9871 106.983 93.6437 106.852C96.6685 106.641 98.7987 105.905 99.8243 105.431C101.455 104.853 103.349 103.932 105.137 102.643C108.425 100.224 110.424 96.7527 110.239 92.1763C110.134 89.6515 109.318 87.1263 108.319 84.76C108.609 84.3387 108.924 83.891 109.214 83.4449C114.422 75.8429 118.445 67.5068 118.445 67.5068C118.445 67.5068 118.814 70.0572 120.076 74.2917C120.707 76.4224 121.943 78.7631 123.074 81.0507C118.182 85.0224 115.158 89.6255 114.105 92.6492C112.159 98.2516 113.685 100.776 116.551 101.355C117.84 101.618 119.681 101.013 121.049 100.434C122.758 99.8555 124.81 98.9349 126.73 97.5148C130.017 95.0957 133.2 91.7023 132.99 87.1C132.91 85.022 132.332 82.9445 131.569 80.9457C135.698 79.2103 141.064 78.2627 147.902 79.0522C162.551 80.7615 165.417 89.9139 164.865 93.7272C164.313 97.5675 161.236 99.6717 160.21 100.303C159.184 100.934 158.869 101.171 158.948 101.644C159.079 102.328 159.553 102.302 160.42 102.143C161.631 101.933 168.1 99.04 168.389 91.9651C168.811 83.0228 160.211 73.1871 144.983 73.2658ZM32.0758 111.322C27.237 116.609 20.4513 118.608 17.5323 116.924C14.4024 115.11 15.6385 107.325 21.6087 101.696C25.2381 98.2775 29.9196 95.1217 33.0231 93.1756C33.7332 92.755 34.7591 92.1236 36.0215 91.3608C36.232 91.2302 36.337 91.1771 36.337 91.1771C36.5735 91.0186 36.8367 90.8876 37.0998 90.7294C39.282 98.7248 37.1782 105.773 32.0758 111.322ZM67.4237 87.2837C65.7403 91.4124 62.1896 101.933 60.0337 101.381C58.1926 100.907 57.0612 92.8857 59.6655 84.9961C60.9802 81.0244 63.7678 76.2906 65.4252 74.4499C68.0811 71.4774 71.0005 70.5305 71.6845 71.7142C72.6047 73.2658 68.4753 84.7065 67.4237 87.2837ZM96.6165 101.224C95.9068 101.592 95.2491 101.828 94.9335 101.644C94.6971 101.512 95.2231 101.012 95.2231 101.012C95.2231 101.012 98.8782 97.0938 100.325 95.3047C101.167 94.2531 102.139 93.0167 103.192 91.6496C103.192 91.7803 103.217 91.9128 103.217 92.0698C103.192 96.7783 98.6684 99.9613 96.6165 101.224ZM119.13 96.0946C118.604 95.7264 118.683 94.4903 120.445 90.65C121.129 89.1508 122.707 86.6263 125.442 84.2065C125.758 85.2058 125.942 86.1523 125.942 87.0465C125.915 92.9644 121.681 95.1737 119.13 96.0946Z" fill="#CF649A"/>
</g>
<defs>
<clipPath id="clip0">
<rect width="168.44" height="126.33" fill="white" transform="translate(0 0.659668)"/>
</clipPath>
</defs>
</svg>
