<svg width="395" height="498" viewBox="0 0 395 498" fill="none" xmlns="http://www.w3.org/2000/svg">
<path d="M389.481 0H5.51896C4.05574 0.00298112 2.65291 1.07161 1.61825 2.9714C0.5836 4.8712 0.00162356 7.44701 0 10.1337V487.866C0.00162564 490.553 0.583625 493.129 1.61828 495.029C2.65293 496.928 4.05574 497.997 5.51896 498H389.481C390.944 497.997 392.347 496.928 393.382 495.029C394.416 493.129 394.998 490.553 395 487.866V10.1337C394.998 7.44701 394.416 4.8712 393.382 2.9714C392.347 1.07161 390.944 0.00298112 389.481 0V0ZM393.423 487.866C393.423 489.786 393.007 491.626 392.268 492.984C391.529 494.341 390.526 495.104 389.481 495.105H5.51896C4.47358 495.104 3.47113 494.341 2.73193 492.984C1.99273 491.626 1.57726 489.786 1.57685 487.866V10.1337C1.57726 8.21422 1.99273 6.37357 2.73193 5.01627C3.47113 3.65898 4.47358 2.89612 5.51896 2.89535H389.481C390.526 2.89612 391.529 3.65898 392.268 5.01627C393.007 6.37357 393.423 8.21422 393.423 10.1337V487.866Z" fill="white"/>
<path d="M394.212 23.0117H0.788422V24.5886H394.212V23.0117Z" fill="white"/>
<path d="M14.1916 17.4611C16.8042 17.4611 18.9222 15.3431 18.9222 12.7305C18.9222 10.1179 16.8042 8 14.1916 8C11.579 8 9.46109 10.1179 9.46109 12.7305C9.46109 15.3431 11.579 17.4611 14.1916 17.4611Z" fill="white"/>
<path d="M27.7919 17.4611C30.4045 17.4611 32.5224 15.3431 32.5224 12.7305C32.5224 10.1179 30.4045 8 27.7919 8C25.1793 8 23.0614 10.1179 23.0614 12.7305C23.0614 15.3431 25.1793 17.4611 27.7919 17.4611Z" fill="white"/>
<path d="M41.3922 17.4611C44.0048 17.4611 46.1228 15.3431 46.1228 12.7305C46.1228 10.1179 44.0048 8 41.3922 8C38.7796 8 36.6617 10.1179 36.6617 12.7305C36.6617 15.3431 38.7796 17.4611 41.3922 17.4611Z" fill="white"/>
<path d="M96.8721 76.0379H30.6446C29.1809 76.0379 27.7771 75.4565 26.7421 74.4215C25.7071 73.3865 25.1256 71.9827 25.1256 70.519C25.1256 69.0552 25.7071 67.6515 26.7421 66.6165C27.7771 65.5815 29.1809 65 30.6446 65H96.8721C98.3358 65 99.7396 65.5815 100.775 66.6165C101.81 67.6515 102.391 69.0552 102.391 70.519C102.391 71.9827 101.81 73.3865 100.775 74.4215C99.7396 75.4565 98.3358 76.0379 96.8721 76.0379Z" fill="#CCCCCC"/>
<path d="M187.541 102.844H30.6446C29.1809 102.844 27.7771 102.263 26.7421 101.228C25.7071 100.193 25.1256 98.7888 25.1256 97.3251C25.1256 95.8614 25.7071 94.4576 26.7421 93.4226C27.7771 92.3876 29.1809 91.8062 30.6446 91.8062H187.541C189.004 91.8062 190.408 92.3876 191.443 93.4226C192.478 94.4576 193.06 95.8614 193.06 97.3251C193.06 98.7888 192.478 100.193 191.443 101.228C190.408 102.263 189.004 102.844 187.541 102.844Z" fill="#CCCCCC"/>
<path d="M229.58 206.949C222.189 217.725 217.882 230.314 217.122 243.359C216.361 256.403 219.178 269.408 225.267 280.969C231.357 292.53 240.487 302.208 251.674 308.96C262.861 315.712 275.68 319.281 288.747 319.281V256.649L229.58 206.949Z" fill="#1984E6"/>
<path d="M288.747 175.789C277.094 175.781 265.616 178.615 255.306 184.045C244.996 189.475 236.166 197.337 229.58 206.949L288.747 256.649V175.789Z" fill="#CCCCCC"/>
<path d="M288.746 320.07H287.958V175H288.746C307.984 175 326.434 182.642 340.036 196.245C353.639 209.848 361.281 228.297 361.281 247.535C361.281 266.772 353.639 285.222 340.036 298.825C326.434 312.428 307.984 320.07 288.746 320.07ZM289.535 176.581V318.489C308.216 318.281 326.062 310.714 339.199 297.43C352.336 284.146 359.704 266.218 359.704 247.535C359.704 228.852 352.336 210.923 339.199 197.64C326.062 184.356 308.216 176.789 289.535 176.581Z" fill="white"/>
<path d="M69.3453 422.216H55.9421C55.0015 422.215 54.0997 421.841 53.4345 421.176C52.7694 420.511 52.3953 419.609 52.3942 418.668V380.036C52.3953 379.095 52.7694 378.193 53.4345 377.528C54.0997 376.863 55.0015 376.489 55.9421 376.488H69.3453C70.2859 376.489 71.1878 376.863 71.8529 377.528C72.518 378.193 72.8921 379.095 72.8932 380.036V418.668C72.8921 419.609 72.518 420.511 71.8529 421.176C71.1877 421.841 70.2859 422.215 69.3453 422.216Z" fill="#CCCCCC"/>
<path d="M108.766 422.216H95.3633C94.4226 422.215 93.5208 421.841 92.8557 421.176C92.1906 420.511 91.8164 419.609 91.8154 418.668V361.902C91.8164 360.961 92.1906 360.059 92.8557 359.394C93.5208 358.729 94.4226 358.355 95.3633 358.354H108.766C109.707 358.355 110.609 358.729 111.274 359.394C111.939 360.059 112.313 360.961 112.314 361.902V418.668C112.313 419.609 111.939 420.511 111.274 421.176C110.609 421.841 109.707 422.215 108.766 422.216Z" fill="#FF6584"/>
<path d="M148.188 422.216H134.784C133.844 422.215 132.942 421.841 132.277 421.176C131.612 420.511 131.238 419.609 131.237 418.668V346.133C131.238 345.193 131.612 344.291 132.277 343.626C132.942 342.961 133.844 342.587 134.784 342.585H148.188C149.128 342.587 150.03 342.961 150.695 343.626C151.36 344.291 151.734 345.193 151.736 346.133V418.668C151.734 419.609 151.36 420.511 150.695 421.176C150.03 421.841 149.128 422.215 148.188 422.216Z" fill="#1984E6"/>
<path d="M69.3453 422.611H55.9421C54.897 422.61 53.895 422.194 53.156 421.455C52.4169 420.716 52.0012 419.714 52 418.669V331.942C52.0012 330.897 52.4169 329.895 53.156 329.156C53.895 328.417 54.897 328.001 55.9421 328H69.3453C70.3905 328.001 71.3925 328.417 72.1315 329.156C72.8705 329.895 73.2862 330.897 73.2874 331.942V418.669C73.2862 419.714 72.8705 420.716 72.1315 421.455C71.3925 422.194 70.3905 422.61 69.3453 422.611ZM55.9421 329.577C55.315 329.578 54.7138 329.827 54.2704 330.27C53.8269 330.714 53.5775 331.315 53.5768 331.942V418.669C53.5775 419.296 53.8269 419.897 54.2704 420.34C54.7138 420.784 55.315 421.033 55.9421 421.034H69.3453C69.9724 421.033 70.5736 420.784 71.0171 420.34C71.4605 419.897 71.7099 419.296 71.7106 418.669V331.942C71.7099 331.315 71.4605 330.714 71.0171 330.27C70.5736 329.827 69.9724 329.578 69.3453 329.577H55.9421Z" fill="white"/>
<path d="M108.766 422.611H95.3633C94.3181 422.61 93.3161 422.194 92.5771 421.455C91.8381 420.716 91.4223 419.714 91.4211 418.669V331.942C91.4223 330.897 91.8381 329.895 92.5771 329.156C93.3161 328.417 94.3181 328.001 95.3633 328H108.766C109.812 328.001 110.814 328.417 111.553 329.156C112.292 329.895 112.707 330.897 112.709 331.942V418.669C112.707 419.714 112.292 420.716 111.553 421.455C110.814 422.194 109.812 422.61 108.766 422.611ZM95.3633 329.577C94.7362 329.578 94.1349 329.827 93.6915 330.27C93.2481 330.714 92.9987 331.315 92.998 331.942V418.669C92.9987 419.296 93.2481 419.897 93.6915 420.34C94.1349 420.784 94.7362 421.033 95.3633 421.034H108.766C109.394 421.033 109.995 420.784 110.438 420.34C110.882 419.897 111.131 419.296 111.132 418.669V331.942C111.131 331.315 110.882 330.714 110.438 330.27C109.995 329.827 109.394 329.578 108.766 329.577H95.3633Z" fill="white"/>
<path d="M148.188 422.611H134.784C133.739 422.61 132.737 422.194 131.998 421.455C131.259 420.716 130.844 419.714 130.842 418.669V331.942C130.844 330.897 131.259 329.895 131.998 329.156C132.737 328.417 133.739 328.001 134.784 328H148.188C149.233 328.001 150.235 328.417 150.974 329.156C151.713 329.895 152.129 330.897 152.13 331.942V418.669C152.129 419.714 151.713 420.716 150.974 421.455C150.235 422.194 149.233 422.61 148.188 422.611ZM134.784 329.577C134.157 329.578 133.556 329.827 133.113 330.27C132.669 330.714 132.42 331.315 132.419 331.942V418.669C132.42 419.296 132.669 419.897 133.113 420.34C133.556 420.784 134.157 421.033 134.784 421.034H148.188C148.815 421.033 149.416 420.784 149.859 420.34C150.303 419.897 150.552 419.296 150.553 418.669V331.942C150.552 331.315 150.303 330.714 149.859 330.27C149.416 329.827 148.815 329.578 148.188 329.577H134.784Z" fill="white"/>
</svg>
