<svg width="127" height="127" viewBox="0 0 127 127" fill="none" xmlns="http://www.w3.org/2000/svg">
<g clip-path="url(#clip0)">
<path d="M113.993 0.659546H12.3369C5.52342 0.659546 0 6.18297 0 12.9965V114.653C0 121.466 5.52342 126.99 12.3369 126.99H113.993C120.807 126.99 126.33 121.466 126.33 114.653V12.9965C126.33 6.18297 120.807 0.659546 113.993 0.659546Z" fill="#3178C6"/>
<path fill-rule="evenodd" clip-rule="evenodd" d="M78.216 101.082V113.419C80.2146 114.455 82.6573 115.22 85.3715 115.738C88.0856 116.256 91.0464 116.503 94.0073 116.503C96.9682 116.503 99.6823 116.232 102.396 115.664C105.111 115.097 107.331 114.159 109.305 112.95C111.304 111.642 113.006 109.989 113.993 107.769C114.98 105.548 115.745 103.081 115.745 99.873C115.745 97.6277 115.4 95.6785 114.733 93.9513C114.067 92.2241 113.105 90.7437 111.772 89.51C110.514 88.2023 109.058 87.0426 107.331 86.0557C105.604 85.0687 103.63 84.0324 101.409 83.0948C99.781 82.4286 98.4486 81.7871 96.9682 81.1456C95.6851 80.5041 94.5748 79.8626 93.7606 79.221C92.8476 78.5548 92.1568 77.864 91.6633 77.1484C91.1698 76.4082 90.9231 75.594 90.9231 74.6811C90.9231 73.8421 91.1427 73.0773 91.5893 72.3864C92.0359 71.6955 92.6502 71.128 93.4398 70.6345C94.2294 70.1411 95.2163 69.771 96.4007 69.4996C97.5603 69.2281 98.8434 69.1048 100.348 69.1048C101.385 69.1048 102.47 69.1813 103.556 69.3367C104.691 69.4921 105.851 69.7315 107.01 70.0522C108.17 70.373 109.305 70.7678 110.465 71.2613C111.55 71.7547 112.562 72.3222 113.426 72.9638V61.3671C111.55 60.6515 109.478 60.1087 107.257 59.7633C105.037 59.4178 102.569 59.2451 99.6083 59.2451C96.6474 59.2451 93.9333 59.5659 91.2192 60.1827C88.505 60.7996 86.2844 61.7865 84.3105 63.1436C82.3119 64.476 80.8561 66.1044 79.6225 68.3251C78.4628 70.3977 77.8953 72.7664 77.8953 75.7272C77.8953 79.4283 78.9563 82.6359 81.1029 85.1033C83.2248 87.8174 86.5311 89.7913 90.7257 91.7652C92.4282 92.4561 93.9333 93.1469 95.4137 93.8131C96.8941 94.4793 98.1278 95.1702 99.1148 95.8857C100.176 96.6013 101.015 97.3908 101.582 98.2297C102.199 99.0686 102.52 100.056 102.52 101.191C102.52 101.98 102.327 102.72 101.952 103.411C101.577 104.102 100.99 104.694 100.2 105.188C99.4109 105.681 98.4486 106.076 97.2396 106.372C96.0799 106.644 94.7722 106.792 93.045 106.792C90.3309 106.792 87.6168 106.323 85.1494 105.385C82.4353 104.448 79.9679 103.041 77.7472 101.191L78.216 101.082ZM57.49 70.7332H73.2813V60.617H29.1151V70.7332H44.9064V115.886H57.49V70.7332Z" fill="white"/>
</g>
<defs>
<clipPath id="clip0">
<rect width="126.33" height="126.33" fill="white" transform="translate(0 0.659546)"/>
</clipPath>
</defs>
</svg>
