<svg width="127" height="127" viewBox="0 0 127 127" fill="none" xmlns="http://www.w3.org/2000/svg">
<path d="M126.554 0.517212H0.224182V126.847H126.554V0.517212Z" fill="#FF26BE"/>
<path d="M120.995 6.07617H5.78198V121.289H120.995V6.07617Z" fill="#2E001F"/>
<path d="M65.8058 34.3363H55.9374L45.3443 56.4919L34.609 34.3363H24.4432L38.8301 63.1046L23.9298 92.5619H33.9753L44.7582 69.9867L55.6662 92.5619H66.5394L51.1816 62.7584L65.8058 34.3363ZM93.0863 34.3363V49.1416C93.0863 49.1416 91.3793 49.1416 90.2426 49.1416C80.5385 49.1416 68.807 55.3995 68.807 71.3837C68.807 83.7404 75.0679 93.0283 88.4035 93.0283C98.2226 93.0283 102.848 89.6317 102.848 89.6317V34.3363H93.0863ZM93.0766 84.5231C93.0766 84.5231 91.9525 85.0174 89.3006 85.0174C86.6487 85.0174 78.5126 83.8491 78.5126 70.948C78.5126 58.0482 87.8623 57.0137 90.1092 57.0137C92.3573 57.0137 93.0764 57.6434 93.0764 57.6434V84.5231H93.0766Z" fill="#FFD9F2"/>
</svg>
